<svg width="80" height="80" viewBox="0 0 80 80" fill="none" xmlns="http://www.w3.org/2000/svg">
<path d="M30.6641 0L28.7031 10.0938C25.4065 11.337 22.3791 13.0797 19.7266 15.2578L10.0312 11.9141L0.6875 28.0859L8.45312 34.8359C8.1546 36.6688 8 38.3674 8 40C8 41.6351 8.15923 43.3305 8.45312 45.1641V45.1719L0.6875 51.9219L10.0312 68.0859L19.7188 64.75C22.3716 66.9293 25.4057 68.6623 28.7031 69.9062L30.6641 80H49.3359L51.2969 69.9062C54.5957 68.6622 57.6196 66.9223 60.2734 64.7422L69.9688 68.0859L79.3047 51.9219L71.5469 45.1641C71.8454 43.3312 72 41.6326 72 40C72 38.3698 71.8445 36.6735 71.5469 34.8438V34.8359L79.3125 28.0781L69.9688 11.9141L60.2812 15.25C57.6284 13.0707 54.5943 11.3377 51.2969 10.0938L49.3359 0H30.6641ZM37.2578 8H42.7422L44.2969 16L48.4688 17.5781C50.9834 18.5259 53.2427 19.827 55.2031 21.4375L58.6562 24.2656L66.3438 21.625L69.0859 26.3672L62.9453 31.7109L63.6484 36.1094V36.1172C63.893 37.6169 64 38.8751 64 40C64 41.1249 63.893 42.3829 63.6484 43.8828L62.9375 48.2812L69.0781 53.625L66.3359 58.375L58.6562 55.7266L55.1953 58.5625C53.2349 60.173 50.9834 61.4741 48.4688 62.4219H48.4609L44.2891 64L42.7344 72H37.2578L35.7031 64L31.5312 62.4219C29.0166 61.4741 26.7573 60.173 24.7969 58.5625L21.3438 55.7344L13.6562 58.375L10.9141 53.6328L17.0625 48.2812L16.3516 43.8984V43.8906C16.1105 42.3844 16 41.1227 16 40C16 38.8751 16.107 37.6171 16.3516 36.1172L17.0625 31.7188L10.9141 26.375L13.6562 21.625L21.3438 24.2734L24.7969 21.4375C26.7573 19.827 29.0166 18.5259 31.5312 17.5781L35.7031 16L37.2578 8ZM40 24C31.2139 24 24 31.2139 24 40C24 48.7861 31.2139 56 40 56C48.7861 56 56 48.7861 56 40C56 31.2139 48.7861 24 40 24ZM40 32C44.4459 32 48 35.5541 48 40C48 44.4459 44.4459 48 40 48C35.5541 48 32 44.4459 32 40C32 35.5541 35.5541 32 40 32Z" fill="white" fill-opacity="0.1"/>
</svg>
