<svg width="88" height="25" viewBox="0 0 88 25" fill="none" xmlns="http://www.w3.org/2000/svg">
<path d="M3.33326 23.0001H19.6667C20.2855 23.0001 20.879 22.7542 21.3166 22.3167C21.7542 21.8791 22 21.2856 22 20.6667V4.33334C22 3.7145 21.7542 3.12101 21.3166 2.68342C20.879 2.24583 20.2855 2 19.6667 2H6.83327L0.999917 7.83336V20.6667C0.999917 21.2856 1.24575 21.8791 1.68334 22.3167C2.12092 22.7542 2.71442 23.0001 3.33326 23.0001Z" stroke="white" stroke-width="2" stroke-linecap="round" stroke-linejoin="round"/>
<path d="M5.66654 23.0013V13.668H17.3333V23.0013" stroke="white" stroke-width="2" stroke-linecap="round" stroke-linejoin="round"/>
<path d="M17.3333 2V7.83336H7.99988" stroke="white" stroke-width="2" stroke-linecap="round" stroke-linejoin="round"/>
<path d="M30.0669 21H28.3965L28.4072 19.9312H30.0669C30.5503 19.9312 30.9549 19.8255 31.2808 19.6143C31.6102 19.403 31.8573 19.1004 32.022 18.7065C32.1903 18.3127 32.2744 17.8436 32.2744 17.2993V16.875C32.2744 16.4525 32.2261 16.0783 32.1294 15.7524C32.0363 15.4266 31.8966 15.1527 31.7104 14.9307C31.5278 14.7087 31.3022 14.5404 31.0337 14.4258C30.7687 14.3112 30.4626 14.2539 30.1152 14.2539H28.3643V13.1797H30.1152C30.6344 13.1797 31.1089 13.2674 31.5386 13.4429C31.9683 13.6147 32.3389 13.8636 32.6504 14.1895C32.9655 14.5153 33.2072 14.9056 33.3755 15.3604C33.5438 15.8151 33.6279 16.3236 33.6279 16.8857V17.2993C33.6279 17.8615 33.5438 18.37 33.3755 18.8247C33.2072 19.2795 32.9655 19.6698 32.6504 19.9956C32.3353 20.3179 31.9593 20.5667 31.5225 20.7422C31.0892 20.9141 30.604 21 30.0669 21ZM29.1431 13.1797V21H27.7949V13.1797H29.1431ZM40.1001 19.9312V21H35.9482V19.9312H40.1001ZM36.3296 13.1797V21H34.9814V13.1797H36.3296ZM39.5576 16.4453V17.498H35.9482V16.4453H39.5576ZM40.0732 13.1797V14.2539H35.9482V13.1797H40.0732ZM43.8813 19.5713L45.9385 13.1797H47.4263L44.6226 21H43.6182L43.8813 19.5713ZM41.98 13.1797L44.021 19.5713L44.3003 21H43.2905L40.4976 13.1797H41.98ZM53.4204 19.9312V21H49.2686V19.9312H53.4204ZM49.6499 13.1797V21H48.3018V13.1797H49.6499ZM52.8779 16.4453V17.498H49.2686V16.4453H52.8779ZM53.3936 13.1797V14.2539H49.2686V13.1797H53.3936ZM59.4199 19.9312V21H55.4937V19.9312H59.4199ZM55.8696 13.1797V21H54.5215V13.1797H55.8696ZM66.3433 16.875V17.3047C66.3433 17.8955 66.2663 18.4255 66.1123 18.8945C65.9583 19.3636 65.7381 19.7629 65.4517 20.0923C65.1688 20.4217 64.8286 20.6742 64.4312 20.8496C64.0337 21.0215 63.5933 21.1074 63.1099 21.1074C62.63 21.1074 62.1914 21.0215 61.7939 20.8496C61.4001 20.6742 61.0581 20.4217 60.7681 20.0923C60.478 19.7629 60.2524 19.3636 60.0913 18.8945C59.9338 18.4255 59.855 17.8955 59.855 17.3047V16.875C59.855 16.2842 59.9338 15.756 60.0913 15.2905C60.2489 14.8215 60.4709 14.4222 60.7573 14.0928C61.0474 13.7598 61.3893 13.5073 61.7832 13.3354C62.1807 13.16 62.6193 13.0723 63.0991 13.0723C63.5825 13.0723 64.0229 13.16 64.4204 13.3354C64.8179 13.5073 65.1598 13.7598 65.4463 14.0928C65.7327 14.4222 65.953 14.8215 66.1069 15.2905C66.2645 15.756 66.3433 16.2842 66.3433 16.875ZM64.9951 17.3047V16.8643C64.9951 16.4274 64.9521 16.0425 64.8662 15.7095C64.7839 15.3729 64.6603 15.0918 64.4956 14.8662C64.3345 14.637 64.1357 14.4652 63.8994 14.3506C63.6631 14.2324 63.3963 14.1733 63.0991 14.1733C62.8019 14.1733 62.5369 14.2324 62.3042 14.3506C62.0715 14.4652 61.8727 14.637 61.708 14.8662C61.5469 15.0918 61.4233 15.3729 61.3374 15.7095C61.2515 16.0425 61.2085 16.4274 61.2085 16.8643V17.3047C61.2085 17.7415 61.2515 18.1283 61.3374 18.4648C61.4233 18.8014 61.5487 19.0861 61.7134 19.3188C61.8817 19.548 62.0822 19.7217 62.3149 19.8398C62.5477 19.9544 62.8127 20.0117 63.1099 20.0117C63.4106 20.0117 63.6774 19.9544 63.9102 19.8398C64.1429 19.7217 64.3398 19.548 64.501 19.3188C64.6621 19.0861 64.7839 18.8014 64.8662 18.4648C64.9521 18.1283 64.9951 17.7415 64.9951 17.3047ZM70.6616 18.0835H68.626V17.0146H70.6616C71.0161 17.0146 71.3026 16.9574 71.521 16.8428C71.7394 16.7282 71.8988 16.5706 71.999 16.3701C72.1029 16.166 72.1548 15.9333 72.1548 15.6719C72.1548 15.4248 72.1029 15.1938 71.999 14.979C71.8988 14.7606 71.7394 14.5851 71.521 14.4526C71.3026 14.3201 71.0161 14.2539 70.6616 14.2539H69.0396V21H67.6914V13.1797H70.6616C71.2668 13.1797 71.7806 13.2871 72.2031 13.502C72.6292 13.7132 72.9533 14.0068 73.1753 14.3828C73.3973 14.7552 73.5083 15.1813 73.5083 15.6611C73.5083 16.166 73.3973 16.5993 73.1753 16.9609C72.9533 17.3226 72.6292 17.6001 72.2031 17.7935C71.7806 17.9868 71.2668 18.0835 70.6616 18.0835ZM79.8354 19.9312V21H75.6836V19.9312H79.8354ZM76.0649 13.1797V21H74.7168V13.1797H76.0649ZM79.293 16.4453V17.498H75.6836V16.4453H79.293ZM79.8086 13.1797V14.2539H75.6836V13.1797H79.8086ZM80.9365 13.1797H83.7026C84.297 13.1797 84.8037 13.2692 85.2227 13.4482C85.6416 13.6273 85.9621 13.8923 86.1841 14.2432C86.4097 14.5905 86.5225 15.0202 86.5225 15.5322C86.5225 15.9225 86.4508 16.2663 86.3076 16.5635C86.1644 16.8607 85.9621 17.1113 85.7007 17.3154C85.4393 17.516 85.1278 17.6717 84.7661 17.7827L84.3579 17.9814H81.8711L81.8604 16.9126H83.7241C84.0464 16.9126 84.3149 16.8553 84.5298 16.7407C84.7446 16.6261 84.9058 16.4704 85.0132 16.2734C85.1242 16.0729 85.1797 15.8473 85.1797 15.5967C85.1797 15.3245 85.126 15.0882 85.0186 14.8877C84.9147 14.6836 84.7536 14.5278 84.5352 14.4204C84.3167 14.3094 84.0392 14.2539 83.7026 14.2539H82.2847V21H80.9365V13.1797ZM85.3999 21L83.563 17.4873L84.9756 17.4819L86.8394 20.9302V21H85.3999Z" fill="white"/>
<path d="M29.7554 8.24365L31.313 2.17969H32.1294L32.0381 3.74268L30.373 10H29.5244L29.7554 8.24365ZM28.5898 2.17969L29.8521 8.19531L29.9648 10H29.0625L27.2524 2.17969H28.5898ZM33.8965 8.1792L35.1426 2.17969H36.4854L34.6753 10H33.7729L33.8965 8.1792ZM32.4463 2.17969L33.9878 8.25977L34.2134 10H33.3647L31.7266 3.74268L31.6406 2.17969H32.4463ZM42.603 8.93115V10H38.4512V8.93115H42.603ZM38.8325 2.17969V10H37.4844V2.17969H38.8325ZM42.0605 5.44531V6.49805H38.4512V5.44531H42.0605ZM42.5762 2.17969V3.25391H38.4512V2.17969H42.5762ZM46.6367 6.46582H44.644L44.6333 5.48291H46.3735C46.6672 5.48291 46.916 5.43994 47.1201 5.354C47.3278 5.26449 47.4854 5.13737 47.5928 4.97266C47.7002 4.80436 47.7539 4.60205 47.7539 4.36572C47.7539 4.10433 47.7038 3.89128 47.6035 3.72656C47.5033 3.56185 47.3493 3.44189 47.1416 3.3667C46.9375 3.2915 46.6761 3.25391 46.3574 3.25391H45.0522V10H43.7041V2.17969H46.3574C46.7871 2.17969 47.1702 2.22087 47.5068 2.30322C47.847 2.38558 48.1353 2.51449 48.3716 2.68994C48.6115 2.86182 48.7923 3.08024 48.9141 3.34521C49.0394 3.61019 49.1021 3.92529 49.1021 4.29053C49.1021 4.61279 49.0251 4.9082 48.8711 5.17676C48.7171 5.44173 48.4897 5.65837 48.189 5.82666C47.8882 5.99495 47.514 6.09521 47.0664 6.12744L46.6367 6.46582ZM46.5776 10H44.2197L44.8267 8.93115H46.5776C46.882 8.93115 47.1362 8.88102 47.3403 8.78076C47.5444 8.67692 47.6966 8.53548 47.7969 8.35645C47.9007 8.17383 47.9526 7.96077 47.9526 7.71729C47.9526 7.46305 47.9079 7.24284 47.8184 7.05664C47.7288 6.86686 47.5874 6.72184 47.394 6.62158C47.2007 6.51774 46.9482 6.46582 46.6367 6.46582H45.1221L45.1328 5.48291H47.104L47.4102 5.85352C47.8398 5.86784 48.1925 5.96273 48.4683 6.13818C48.7476 6.31364 48.9552 6.54102 49.0913 6.82031C49.2274 7.09961 49.2954 7.40039 49.2954 7.72266C49.2954 8.22038 49.1862 8.63753 48.9678 8.97412C48.7529 9.31071 48.4432 9.56673 48.0386 9.74219C47.634 9.91406 47.147 10 46.5776 10Z" fill="white"/>
</svg>
