<svg width="97" height="28" viewBox="0 0 97 28" fill="none" xmlns="http://www.w3.org/2000/svg">
<path d="M36.7554 9.24365L38.313 3.17969H39.1294L39.0381 4.74268L37.373 11H36.5244L36.7554 9.24365ZM35.5898 3.17969L36.8521 9.19531L36.9648 11H36.0625L34.2524 3.17969H35.5898ZM40.8965 9.1792L42.1426 3.17969H43.4854L41.6753 11H40.7729L40.8965 9.1792ZM39.4463 3.17969L40.9878 9.25977L41.2134 11H40.3647L38.7266 4.74268L38.6406 3.17969H39.4463ZM49.933 9.93115V11H45.7812V9.93115H49.933ZM46.1625 3.17969V11H44.8144V3.17969H46.1625ZM49.3905 6.44531V7.49805H45.7812V6.44531H49.3905ZM49.9062 3.17969V4.25391H45.7812V3.17969H49.9062ZM54.2967 7.46582H52.304L52.2933 6.48291H54.0335C54.3272 6.48291 54.576 6.43994 54.7801 6.354C54.9878 6.26449 55.1454 6.13737 55.2528 5.97266C55.3602 5.80436 55.4139 5.60205 55.4139 5.36572C55.4139 5.10433 55.3638 4.89128 55.2635 4.72656C55.1633 4.56185 55.0093 4.44189 54.8016 4.3667C54.5975 4.2915 54.3361 4.25391 54.0174 4.25391H52.7122V11H51.3641V3.17969H54.0174C54.4471 3.17969 54.8302 3.22087 55.1668 3.30322C55.507 3.38558 55.7953 3.51449 56.0316 3.68994C56.2715 3.86182 56.4523 4.08024 56.5741 4.34521C56.6994 4.61019 56.7621 4.92529 56.7621 5.29053C56.7621 5.61279 56.6851 5.9082 56.5311 6.17676C56.3771 6.44173 56.1497 6.65837 55.849 6.82666C55.5482 6.99495 55.174 7.09521 54.7264 7.12744L54.2967 7.46582ZM54.2376 11H51.8797L52.4867 9.93115H54.2376C54.542 9.93115 54.7962 9.88102 55.0003 9.78076C55.2044 9.67692 55.3566 9.53548 55.4569 9.35645C55.5607 9.17383 55.6126 8.96077 55.6126 8.71729C55.6126 8.46305 55.5679 8.24284 55.4784 8.05664C55.3888 7.86686 55.2474 7.72184 55.054 7.62158C54.8607 7.51774 54.6082 7.46582 54.2967 7.46582H52.7821L52.7928 6.48291H54.764L55.0702 6.85352C55.4998 6.86784 55.8525 6.96273 56.1283 7.13818C56.4076 7.31364 56.6152 7.54102 56.7513 7.82031C56.8874 8.09961 56.9554 8.40039 56.9554 8.72266C56.9554 9.22038 56.8462 9.63753 56.6278 9.97412C56.4129 10.3107 56.1032 10.5667 55.6986 10.7422C55.294 10.9141 54.807 11 54.2376 11Z" fill="#111828"/>
<path d="M37.0669 24H35.3965L35.4072 22.9312H37.0669C37.5503 22.9312 37.9549 22.8255 38.2808 22.6143C38.6102 22.403 38.8573 22.1004 39.022 21.7065C39.1903 21.3127 39.2744 20.8436 39.2744 20.2993V19.875C39.2744 19.4525 39.2261 19.0783 39.1294 18.7524C39.0363 18.4266 38.8966 18.1527 38.7104 17.9307C38.5278 17.7087 38.3022 17.5404 38.0337 17.4258C37.7687 17.3112 37.4626 17.2539 37.1152 17.2539H35.3643V16.1797H37.1152C37.6344 16.1797 38.1089 16.2674 38.5386 16.4429C38.9683 16.6147 39.3389 16.8636 39.6504 17.1895C39.9655 17.5153 40.2072 17.9056 40.3755 18.3604C40.5438 18.8151 40.6279 19.3236 40.6279 19.8857V20.2993C40.6279 20.8615 40.5438 21.37 40.3755 21.8247C40.2072 22.2795 39.9655 22.6698 39.6504 22.9956C39.3353 23.3179 38.9593 23.5667 38.5225 23.7422C38.0892 23.9141 37.604 24 37.0669 24ZM36.1431 16.1797V24H34.7949V16.1797H36.1431ZM47.4301 22.9312V24H43.2782V22.9312H47.4301ZM43.6596 16.1797V24H42.3114V16.1797H43.6596ZM46.8876 19.4453V20.498H43.2782V19.4453H46.8876ZM47.4032 16.1797V17.2539H43.2782V16.1797H47.4032ZM51.5413 22.5713L53.5985 16.1797H55.0863L52.2826 24H51.2782L51.5413 22.5713ZM49.64 16.1797L51.681 22.5713L51.9603 24H50.9505L48.1576 16.1797H49.64ZM61.4104 22.9312V24H57.2586V22.9312H61.4104ZM57.6399 16.1797V24H56.2918V16.1797H57.6399ZM60.8679 19.4453V20.498H57.2586V19.4453H60.8679ZM61.3836 16.1797V17.2539H57.2586V16.1797H61.3836ZM67.7399 22.9312V24H63.8137V22.9312H67.7399ZM64.1896 16.1797V24H62.8415V16.1797H64.1896ZM74.9933 19.875V20.3047C74.9933 20.8955 74.9163 21.4255 74.7623 21.8945C74.6083 22.3636 74.3881 22.7629 74.1017 23.0923C73.8188 23.4217 73.4786 23.6742 73.0812 23.8496C72.6837 24.0215 72.2433 24.1074 71.7599 24.1074C71.28 24.1074 70.8414 24.0215 70.4439 23.8496C70.0501 23.6742 69.7081 23.4217 69.4181 23.0923C69.128 22.7629 68.9024 22.3636 68.7413 21.8945C68.5838 21.4255 68.505 20.8955 68.505 20.3047V19.875C68.505 19.2842 68.5838 18.756 68.7413 18.2905C68.8989 17.8215 69.1209 17.4222 69.4073 17.0928C69.6974 16.7598 70.0393 16.5073 70.4332 16.3354C70.8307 16.16 71.2693 16.0723 71.7491 16.0723C72.2325 16.0723 72.673 16.16 73.0704 16.3354C73.4679 16.5073 73.8098 16.7598 74.0963 17.0928C74.3827 17.4222 74.603 17.8215 74.7569 18.2905C74.9145 18.756 74.9933 19.2842 74.9933 19.875ZM73.6451 20.3047V19.8643C73.6451 19.4274 73.6021 19.0425 73.5162 18.7095C73.4339 18.3729 73.3103 18.0918 73.1456 17.8662C72.9845 17.637 72.7857 17.4652 72.5494 17.3506C72.3131 17.2324 72.0463 17.1733 71.7491 17.1733C71.4519 17.1733 71.1869 17.2324 70.9542 17.3506C70.7215 17.4652 70.5227 17.637 70.358 17.8662C70.1969 18.0918 70.0733 18.3729 69.9874 18.7095C69.9015 19.0425 69.8585 19.4274 69.8585 19.8643V20.3047C69.8585 20.7415 69.9015 21.1283 69.9874 21.4648C70.0733 21.8014 70.1987 22.0861 70.3634 22.3188C70.5317 22.548 70.7322 22.7217 70.9649 22.8398C71.1977 22.9544 71.4627 23.0117 71.7599 23.0117C72.0606 23.0117 72.3274 22.9544 72.5602 22.8398C72.7929 22.7217 72.9898 22.548 73.151 22.3188C73.3121 22.0861 73.4339 21.8014 73.5162 21.4648C73.6021 21.1283 73.6451 20.7415 73.6451 20.3047ZM79.6416 21.0835H77.606V20.0146H79.6416C79.9961 20.0146 80.2826 19.9574 80.501 19.8428C80.7194 19.7282 80.8788 19.5706 80.979 19.3701C81.0829 19.166 81.1348 18.9333 81.1348 18.6719C81.1348 18.4248 81.0829 18.1938 80.979 17.979C80.8788 17.7606 80.7194 17.5851 80.501 17.4526C80.2826 17.3201 79.9961 17.2539 79.6416 17.2539H78.0196V24H76.6714V16.1797H79.6416C80.2468 16.1797 80.7606 16.2871 81.1831 16.502C81.6092 16.7132 81.9333 17.0068 82.1553 17.3828C82.3773 17.7552 82.4883 18.1813 82.4883 18.6611C82.4883 19.166 82.3773 19.5993 82.1553 19.9609C81.9333 20.3226 81.6092 20.6001 81.1831 20.7935C80.7606 20.9868 80.2468 21.0835 79.6416 21.0835ZM89.1455 22.9312V24H84.9936V22.9312H89.1455ZM85.3749 16.1797V24H84.0268V16.1797H85.3749ZM88.603 19.4453V20.498H84.9936V19.4453H88.603ZM89.1186 16.1797V17.2539H84.9936V16.1797H89.1186ZM90.5765 16.1797H93.3426C93.937 16.1797 94.4437 16.2692 94.8627 16.4482C95.2816 16.6273 95.6021 16.8923 95.8241 17.2432C96.0497 17.5905 96.1625 18.0202 96.1625 18.5322C96.1625 18.9225 96.0908 19.2663 95.9476 19.5635C95.8044 19.8607 95.6021 20.1113 95.3407 20.3154C95.0793 20.516 94.7678 20.6717 94.4061 20.7827L93.9979 20.9814H91.5111L91.5004 19.9126H93.3641C93.6864 19.9126 93.9549 19.8553 94.1698 19.7407C94.3846 19.6261 94.5458 19.4704 94.6532 19.2734C94.7642 19.0729 94.8197 18.8473 94.8197 18.5967C94.8197 18.3245 94.766 18.0882 94.6586 17.8877C94.5547 17.6836 94.3936 17.5278 94.1752 17.4204C93.9567 17.3094 93.6792 17.2539 93.3426 17.2539H91.9247V24H90.5765V16.1797ZM95.0399 24L93.203 20.4873L94.6156 20.4819L96.4794 23.9302V24H95.0399Z" fill="#111828"/>
<path d="M4.08333 26.75H23.9167C24.6681 26.75 25.3888 26.4515 25.9201 25.9201C26.4515 25.3888 26.75 24.6681 26.75 23.9167V4.08333C26.75 3.33189 26.4515 2.61122 25.9201 2.07986C25.3888 1.54851 24.6681 1.25 23.9167 1.25H8.33333L1.25 8.33333V23.9167C1.25 24.6681 1.54851 25.3888 2.07987 25.9201C2.61122 26.4515 3.33189 26.75 4.08333 26.75Z" stroke="#2c385b" stroke-width="2" stroke-linecap="round" stroke-linejoin="round"/>
<path d="M6.91667 26.7493V15.416H21.0833V26.7493" stroke="#2c385b" stroke-width="2" stroke-linecap="round" stroke-linejoin="round"/>
<path d="M21.0833 1.25V8.33333H9.75" stroke="#2c385b" stroke-width="2" stroke-linecap="round" stroke-linejoin="round"/>
</svg>
