<svg width="288" height="288" viewBox="0 0 288 288" fill="none" xmlns="http://www.w3.org/2000/svg">
<path d="M216 216C216 213.214 214.982 210.804 212.946 208.768C210.911 206.732 208.5 205.714 205.714 205.714C202.928 205.714 200.518 206.732 198.482 208.768C196.446 210.804 195.428 213.214 195.428 216C195.428 218.786 196.446 221.196 198.482 223.232C200.518 225.268 202.928 226.286 205.714 226.286C208.5 226.286 210.911 225.268 212.946 223.232C214.982 221.196 216 218.786 216 216ZM257.143 216C257.143 213.214 256.125 210.804 254.089 208.768C252.053 206.732 249.643 205.714 246.857 205.714C244.071 205.714 241.661 206.732 239.625 208.768C237.589 210.804 236.571 213.214 236.571 216C236.571 218.786 237.589 221.196 239.625 223.232C241.661 225.268 244.071 226.286 246.857 226.286C249.643 226.286 252.053 225.268 254.089 223.232C256.125 221.196 257.143 218.786 257.143 216ZM277.714 180V231.429C277.714 235.714 276.214 239.357 273.214 242.357C270.214 245.357 266.571 246.857 262.286 246.857H25.7142C21.4285 246.857 17.7856 245.357 14.7856 242.357C11.7856 239.357 10.2856 235.714 10.2856 231.429V180C10.2856 175.714 11.7856 172.071 14.7856 169.071C17.7856 166.071 21.4285 164.571 25.7142 164.571H100.446L122.143 186.429C128.357 192.429 135.643 195.429 144 195.429C152.357 195.429 159.643 192.429 165.857 186.429L187.714 164.571H262.286C266.571 164.571 270.214 166.071 273.214 169.071C276.214 172.071 277.714 175.714 277.714 180ZM225.482 88.5536C227.303 92.9464 226.553 96.6964 223.232 99.8036L151.232 171.804C149.303 173.839 146.893 174.857 144 174.857C141.107 174.857 138.696 173.839 136.768 171.804L64.7678 99.8036C61.4464 96.6964 60.6964 92.9464 62.5178 88.5536C64.3392 84.375 67.4999 82.2857 71.9999 82.2857H113.143V10.2857C113.143 7.5 114.161 5.08929 116.196 3.05357C118.232 1.01786 120.643 0 123.429 0H164.571C167.357 0 169.768 1.01786 171.803 3.05357C173.839 5.08929 174.857 7.5 174.857 10.2857V82.2857H216C220.5 82.2857 223.661 84.375 225.482 88.5536Z" fill="#2c385b"/>
</svg>
