<svg width="12" height="13" viewBox="0 0 12 13" fill="none" xmlns="http://www.w3.org/2000/svg">
<path d="M8.17949 12V9.97544C8.19872 9.72599 8.16569 9.47521 8.08257 9.23979C7.99946 9.00437 7.86817 8.7897 7.69744 8.61004C9.30769 8.42694 11 7.8044 11 4.94805C10.9999 4.21765 10.7245 3.51526 10.2308 2.98626C10.4645 2.34725 10.448 1.64092 10.1846 1.01402C10.1846 1.01402 9.57949 0.830917 8.17949 1.78827C7.00411 1.4633 5.76512 1.4633 4.58974 1.78827C3.18974 0.830917 2.58462 1.01402 2.58462 1.01402C2.32122 1.64092 2.30469 2.34725 2.53846 2.98626C2.04109 3.51919 1.7654 4.22792 1.76923 4.96374C1.76923 7.79917 3.46154 8.42171 5.07179 8.62573C4.90308 8.80359 4.77296 9.01569 4.6899 9.24823C4.60685 9.48078 4.57272 9.72855 4.58974 9.97544V12M4.58974 10.4306C2.02564 11.2153 2.02564 9.12272 1 8.86115L4.58974 10.4306Z" stroke="#2c385b" stroke-linecap="round" stroke-linejoin="round"/>
</svg>
