<svg width="14" height="13" viewBox="0 0 14 13" fill="none" xmlns="http://www.w3.org/2000/svg">
<path d="M9.10526 4.47368C10.0265 4.47368 10.9101 4.83966 11.5615 5.4911C12.213 6.14255 12.5789 7.02609 12.5789 7.94737V12H10.2632V7.94737C10.2632 7.64028 10.1412 7.34576 9.92402 7.12861C9.70687 6.91147 9.41236 6.78947 9.10526 6.78947C8.79817 6.78947 8.50366 6.91147 8.28651 7.12861C8.06936 7.34576 7.94737 7.64028 7.94737 7.94737V12H5.63158V7.94737C5.63158 7.02609 5.99756 6.14255 6.649 5.4911C7.30044 4.83966 8.18398 4.47368 9.10526 4.47368Z" stroke="white" stroke-linecap="round" stroke-linejoin="round"/>
<path d="M3.31579 5.05263H1V12H3.31579V5.05263Z" stroke="white" stroke-linecap="round" stroke-linejoin="round"/>
<path d="M2.15789 3.31579C2.79738 3.31579 3.31579 2.79738 3.31579 2.15789C3.31579 1.51841 2.79738 1 2.15789 1C1.51841 1 1 1.51841 1 2.15789C1 2.79738 1.51841 3.31579 2.15789 3.31579Z" stroke="white" stroke-linecap="round" stroke-linejoin="round"/>
</svg>
