<svg width="144" height="144" viewBox="0 0 144 144" fill="none" xmlns="http://www.w3.org/2000/svg">
<path d="M132 72C130.409 72 128.883 72.6321 127.757 73.7574C126.632 74.8826 126 76.4087 126 78V120C126 123.315 123.315 126 120 126H24C20.685 126 18 123.315 18 120V24C18 20.685 20.685 18 24 18H66C67.5913 18 69.1174 17.3679 70.2426 16.2426C71.3679 15.1174 72 13.5913 72 12C72 10.4087 71.3679 8.88258 70.2426 7.75736C69.1174 6.63214 67.5913 6 66 6H24C14.0595 6 6 14.0595 6 24V120C6 129.94 14.0595 138 24 138H120C129.94 138 138 129.94 138 120V78C138 76.4087 137.368 74.8826 136.243 73.7574C135.117 72.6321 133.591 72 132 72ZM138 12V48C138 49.5913 137.368 51.1174 136.243 52.2426C135.117 53.3679 133.591 54 132 54C130.409 54 128.883 53.3679 127.757 52.2426C126.632 51.1174 126 49.5913 126 48V26.484L76.8435 75.639C75.7103 76.7235 74.1974 77.3211 72.6289 77.3038C71.0604 77.2865 69.5611 76.6557 68.4521 75.5464C67.343 74.4372 66.7125 72.9378 66.6954 71.3693C66.6784 69.8008 67.2763 68.288 68.361 67.155L117.515 18H96C94.4087 18 92.8826 17.3679 91.7574 16.2426C90.6321 15.1174 90 13.5913 90 12C90 10.4087 90.6321 8.88258 91.7574 7.75736C92.8826 6.63214 94.4087 6 96 6H132C133.591 6 135.117 6.63214 136.243 7.75736C137.368 8.88258 138 10.4087 138 12Z" fill="white"/>
</svg>
