<svg width="260" height="183" viewBox="0 0 260 183" fill="none" xmlns="http://www.w3.org/2000/svg">
<rect width="260" height="183" fill="#9B0000"/>
<rect x="79" y="40" width="102" height="101" fill="white"/>
<path fill-rule="evenodd" clip-rule="evenodd" d="M79 40H181V141.3H79V40ZM121.811 115.502C122.147 115.706 124.016 116.96 124.267 117.277C116.028 117.588 109.129 118.083 102.204 113.547C97.8539 110.702 93.2131 104.853 92.6057 97.3672C91.4373 83.1937 103.525 71.1195 118.246 73.6545C126.359 75.054 129.772 79.6487 133.727 83.4974C134.829 84.5668 135.799 85.5769 136.882 86.6661C137.701 87.4913 139.298 88.6202 139.397 90.5082C139.496 92.3896 138.209 93.8354 136.809 94.2579C134.539 94.9312 133.264 93.5449 132.367 92.6537C130.201 90.4884 128.181 88.4551 126.056 86.3228C124.082 84.3424 122.101 82.2629 118.437 81.2925C106.713 78.17 97.6031 88.9898 100.429 99.1562C102.303 105.877 108.066 109.851 114.965 109.864C116.292 109.87 116.312 110.372 117.038 111.072C117.599 111.62 118.022 112.062 118.576 112.617L121.811 115.502ZM165.869 99.6975C165.394 101.988 162.8 105.936 161.638 107.342C155.71 114.498 146.758 118.624 136.506 116.934C126.478 115.284 121.613 109.091 115.322 102.787C114.061 101.526 110.021 97.8953 109.631 96.3901C108.839 95.3669 109.869 91.5644 113.196 91.604C115.236 91.6305 116.813 93.7297 118.451 95.3933L127.501 104.431C130.439 107.184 134.393 109.62 140.104 109.857C155.69 110.484 165.922 92.997 156.462 79.4375C151.65 72.5389 142.262 69.5682 133.951 72.7501C132.796 73.1924 131.819 73.8592 130.835 74.2223C130.261 73.9186 129.779 73.5027 129.231 73.1462C126.736 71.5024 126.445 71.6081 123.923 70.367C124.273 69.2183 129.667 66.4985 130.558 66.109C139.041 62.4055 149.451 63.9437 156.258 68.908C162.945 73.7932 167.427 81.3585 167.48 90.363C167.493 92.6273 166.853 98.397 165.869 99.6975ZM88.2025 99.4995C88.9089 106.358 93.8402 113.488 99.2931 117.198C107.129 122.519 112.509 121.951 123.336 121.951C128.142 121.951 132.941 121.951 137.747 121.951C149.531 121.951 155.683 119.878 163.777 111.976L166.714 108.299C166.998 107.982 166.813 108.167 167.064 107.982C167.15 107.467 167.969 106.325 168.338 105.659C169.758 103.084 170.675 100.562 171.368 97.6444C173.25 89.7226 171.692 80.7776 167.348 73.9912C158.819 60.6759 141.589 55.2363 126.841 62.696C124.478 63.8909 119.857 66.9606 118.51 68.8882C117.348 68.9212 115.942 68.677 114.661 68.6704C103.28 68.6176 93.3517 75.635 89.4898 86.0654C88.1101 89.8018 87.3575 95.0896 88.2025 99.4995Z" fill="#FF0000"/>
</svg>
