<svg width="260" height="183" viewBox="0 0 260 183" fill="none" xmlns="http://www.w3.org/2000/svg">
<rect width="260" height="183" fill="#004D8A"/>
<path d="M109.126 88.9103C109.097 90.0565 109.237 91.2008 109.543 92.3053C109.88 93.2499 110.286 94.1681 110.757 95.0527C110.925 95.3143 111.017 95.6183 111.022 95.9301C111.022 96.3115 110.795 96.6933 110.302 97.0744L107.913 98.6766C107.625 98.8854 107.282 99.0047 106.928 99.0198C106.496 98.9899 106.09 98.7996 105.79 98.4858C105.279 97.9335 104.822 97.3332 104.425 96.693C104.046 96.0446 103.666 95.3194 103.249 94.4424C100.292 97.9512 96.5762 99.7056 92.102 99.7056C88.9161 99.7056 86.3769 98.7898 84.5191 96.9582C82.6612 95.1266 81.7133 92.6867 81.7133 89.6351C81.7133 86.3927 82.8507 83.7607 85.1636 81.7771C87.4766 79.7935 90.5474 78.8017 94.4527 78.8017C95.7977 78.8127 97.1404 78.9147 98.4718 79.1069C99.8747 79.2977 101.315 79.6028 102.832 79.9462V77.1615C102.832 74.2615 102.225 72.2408 101.05 71.0582C99.8363 69.8757 97.7893 69.3035 94.8697 69.3035C93.4899 69.3035 92.1151 69.4699 90.7748 69.7994C89.381 70.1334 88.0125 70.5669 86.6799 71.0963C86.2487 71.2904 85.8054 71.456 85.3528 71.5921C85.1565 71.6573 84.9524 71.6958 84.746 71.7066C84.2152 71.7066 83.9497 71.3253 83.9497 70.5242V68.6551C83.9497 68.0445 84.0256 67.5866 84.2152 67.32C84.5013 66.9723 84.8652 66.6977 85.2772 66.5189C86.7979 65.7618 88.4012 65.1858 90.0546 64.8024C91.9866 64.3036 93.9749 64.06 95.9694 64.0776C100.482 64.0776 103.78 65.1074 105.903 67.1673C107.989 69.2272 109.05 72.3551 109.05 76.5512V88.9103H109.126ZM93.7325 94.7084C95.0626 94.6937 96.3815 94.4618 97.6378 94.0218C99.0294 93.5374 100.271 92.6955 101.24 91.5796C101.851 90.8765 102.292 90.0407 102.529 89.1375C102.789 88.051 102.917 86.9365 102.908 85.8188V84.2184C101.758 83.9368 100.594 83.7203 99.4202 83.5699C98.2379 83.4192 97.0474 83.3431 95.8556 83.342C93.3153 83.342 91.4575 83.8379 90.2063 84.8684C88.9551 85.8989 88.3485 87.3478 88.3485 89.255C88.3485 91.0478 88.8036 92.3829 89.7514 93.2985C90.6616 94.2522 91.9885 94.7099 93.7325 94.7099V94.7084ZM124.178 98.8282C123.496 98.8282 123.041 98.7137 122.738 98.4468C122.434 98.2179 122.169 97.6836 121.941 96.9591L113.031 67.4726C112.858 66.979 112.744 66.4667 112.69 65.9463C112.69 65.3357 112.993 64.9925 113.6 64.9925H117.316C118.036 64.9925 118.529 65.107 118.794 65.3739C119.098 65.6028 119.325 66.1371 119.553 66.8616L125.923 92.1138L131.837 66.8623C132.027 66.0991 132.254 65.6035 132.558 65.3745C132.861 65.1456 133.392 64.9932 134.075 64.9932H137.109C137.829 64.9932 138.323 65.1077 138.626 65.3745C138.93 65.6035 139.195 66.1377 139.347 66.8623L145.337 92.4198L151.894 66.8623C152.122 66.0991 152.387 65.6035 152.653 65.3745C152.956 65.1456 153.449 64.9932 154.132 64.9932H157.658C158.265 64.9932 158.606 65.2984 158.606 65.9469C158.597 66.1522 158.572 66.3563 158.53 66.5574C158.471 66.8828 158.382 67.2021 158.265 67.5112L149.127 96.9977C148.9 97.7605 148.634 98.2564 148.331 98.4854C147.902 98.7614 147.398 98.8949 146.89 98.8668H143.629C142.909 98.8668 142.415 98.7523 142.112 98.4854C141.808 98.2185 141.543 97.7222 141.391 96.9591L135.515 72.3551L129.676 96.9209C129.486 97.6841 129.259 98.1797 128.955 98.4472C128.652 98.7148 128.121 98.8286 127.438 98.8286L124.178 98.8282ZM172.9 99.858C170.933 99.8601 168.973 99.6296 167.061 99.1714C165.165 98.7135 163.686 98.2176 162.7 97.645C162.094 97.3018 161.677 96.9203 161.525 96.5766C161.377 96.2399 161.3 95.8762 161.298 95.5082V93.5641C161.298 92.763 161.601 92.3816 162.17 92.3816C162.402 92.3824 162.632 92.4211 162.852 92.4961C163.08 92.5724 163.421 92.725 163.8 92.8774C165.139 93.4701 166.538 93.9176 167.971 94.2125C169.456 94.5159 170.967 94.6692 172.483 94.6704C174.871 94.6704 176.729 94.2509 178.019 93.4117C178.636 93.0368 179.144 92.5039 179.49 91.8674C179.837 91.2309 180.01 90.5134 179.991 89.7879C180.004 89.2969 179.921 88.808 179.745 88.3497C179.569 87.8913 179.305 87.4726 178.967 87.1177C178.285 86.393 176.995 85.744 175.138 85.1335L169.639 83.4173C166.871 82.5401 164.824 81.2431 163.573 79.5262C162.352 77.9431 161.685 75.9986 161.677 73.995C161.646 72.518 161.999 71.0585 162.7 69.7608C163.378 68.5336 164.309 67.4669 165.431 66.6329C166.613 65.7328 167.95 65.0601 169.374 64.6487C170.927 64.1992 172.536 63.9811 174.151 64.0013C175 63.9951 175.849 64.0461 176.691 64.1539C177.563 64.2684 178.36 64.421 179.156 64.5734C179.914 64.7642 180.634 64.9548 181.317 65.184C181.87 65.3562 182.404 65.5863 182.909 65.8706C183.356 66.0971 183.745 66.4233 184.047 66.8243C184.293 67.1955 184.413 67.6374 184.388 68.0831V69.8759C184.388 70.677 184.084 71.097 183.516 71.097C183.212 71.097 182.719 70.9443 182.075 70.6391C179.914 69.6472 177.487 69.1513 174.795 69.1513C172.634 69.1513 170.928 69.4945 169.752 70.2198C168.577 70.945 167.97 72.0514 167.97 73.6148C167.96 74.1213 168.056 74.6243 168.252 75.091C168.448 75.5577 168.74 75.9775 169.108 76.3231C169.866 77.0479 171.269 77.7727 173.279 78.4212L178.663 80.1368C181.393 81.0142 183.364 82.2348 184.54 83.7986C185.697 85.3331 186.311 87.213 186.284 89.139C186.303 90.6712 185.966 92.1867 185.298 93.5639C184.625 94.8695 183.681 96.0143 182.53 96.9207C181.278 97.901 179.849 98.6268 178.321 99.0576C176.565 99.601 174.737 99.8711 172.899 99.8587L172.9 99.858Z" fill="#252F3E"/>
<path d="M180.066 118.396C167.591 127.666 149.468 132.586 133.885 132.586C112.045 132.587 92.3674 124.462 77.505 110.959C76.3297 109.89 77.3912 108.441 78.7941 109.28C94.8702 118.664 114.7 124.347 135.212 124.347C149.051 124.347 164.255 121.447 178.246 115.497C180.331 114.543 182.113 116.871 180.066 118.397L180.066 118.396Z" fill="#FF9900"/>
<path d="M185.26 112.446C183.667 110.386 174.719 111.455 170.662 111.95C169.449 112.103 169.26 111.035 170.359 110.234C177.487 105.199 189.203 106.648 190.568 108.327C191.933 110.043 190.189 121.83 183.516 127.476C182.492 128.353 181.506 127.895 181.961 126.751C183.478 122.974 186.853 114.468 185.26 112.446Z" fill="#FF9900"/>
</svg>
