<svg width="260" height="183" viewBox="0 0 260 183" fill="none" xmlns="http://www.w3.org/2000/svg">
<rect width="260" height="183" fill="#32155F"/>
<path d="M80 129.106C80 136.228 85.773 142 92.8941 142H167.105C174.228 142 180 136.227 180 129.106V54.8945C180 47.7723 174.227 42 167.106 42H92.8945C85.7723 42 80 47.773 80 54.8941V129.105V129.106Z" fill="#563D7C"/>
<path d="M121.468 86.2336V72.0723H133.933C135.121 72.0723 136.265 72.1711 137.367 72.3691C138.47 72.5668 139.445 72.9199 140.293 73.4289C141.141 73.9379 141.819 74.6445 142.328 75.5488C142.837 76.4535 143.092 77.6125 143.092 79.0254C143.092 81.5695 142.328 83.407 140.802 84.5375C139.276 85.6684 137.325 86.2336 134.951 86.2336H121.468V86.2336ZM108.154 61.7266V122.273H137.495C140.209 122.273 142.851 121.934 145.424 121.256C147.996 120.577 150.285 119.532 152.293 118.118C154.299 116.705 155.896 114.882 157.084 112.649C158.271 110.416 158.864 107.773 158.864 104.72C158.864 100.932 157.946 97.6957 156.109 95.0105C154.271 92.325 151.487 90.4453 147.755 89.3711C150.469 88.0711 152.519 86.4031 153.904 84.368C155.289 82.3328 155.981 79.7891 155.981 76.7359C155.981 73.9094 155.515 71.5352 154.582 69.6129C153.649 67.691 152.335 66.1504 150.639 64.9914C148.943 63.8324 146.908 62.9984 144.533 62.4898C142.159 61.9809 139.53 61.7266 136.647 61.7266H108.154V61.7266ZM121.468 111.928V95.307H135.968C138.851 95.307 141.169 95.9711 142.922 97.3C144.675 98.6285 145.551 100.847 145.551 103.957C145.551 105.54 145.282 106.84 144.745 107.857C144.208 108.875 143.487 109.681 142.583 110.274C141.678 110.868 140.632 111.292 139.445 111.546C138.258 111.8 137.014 111.928 135.714 111.928H121.468V111.928Z" fill="white"/>
</svg>
