<svg width="260" height="183" viewBox="0 0 260 183" fill="none" xmlns="http://www.w3.org/2000/svg">
<rect width="260" height="183" fill="white"/>
<path d="M54.0022 110.31V93.4024H75.401V92.4134H54.0022V76.9887H76.7539V76H53V111.299H76.9542V110.31H54.0025H54.0022ZM96.2484 85.8875L87.3784 97.4067L78.7084 85.8878H77.4054L86.7768 98.1485L76.503 111.299H77.7059L87.3778 98.8894L97.0999 111.299H98.3527L88.0293 98.1479L97.4507 85.8872H96.2481L96.2484 85.8875ZM101.36 120V104.18H101.46C102.062 106.487 103.248 108.341 105.018 109.742C106.789 111.142 109.044 111.843 111.783 111.843C113.554 111.843 115.125 111.489 116.494 110.78C117.864 110.072 119.008 109.107 119.927 107.888C120.846 106.668 121.547 105.251 122.032 103.636C122.516 102.021 122.759 100.324 122.759 98.5443C122.759 96.6325 122.508 94.8691 122.007 93.2543C121.506 91.6392 120.779 90.2384 119.827 89.0521C118.875 87.8655 117.722 86.9424 116.369 86.2836C115.016 85.6243 113.487 85.2946 111.783 85.2946C110.481 85.2946 109.27 85.4843 108.15 85.8632C107.031 86.2424 106.037 86.7777 105.169 87.4699C104.295 88.1675 103.534 88.9927 102.913 89.917C102.279 90.8565 101.794 91.8864 101.46 93.0071H101.36V85.8875H100.358V120H101.36V120ZM111.783 110.903C108.643 110.903 106.121 109.84 104.216 107.715C102.312 105.589 101.36 102.532 101.36 98.5437C101.36 96.8957 101.594 95.3302 102.062 93.8472C102.529 92.3641 103.206 91.0621 104.091 89.9417C104.977 88.8209 106.071 87.9311 107.373 87.272C108.676 86.6127 110.147 86.283 111.783 86.283C113.454 86.283 114.916 86.6127 116.169 87.272C117.421 87.9311 118.457 88.8292 119.276 89.9663C120.094 91.1033 120.712 92.4054 121.13 93.8718C121.547 95.3385 121.756 96.8957 121.756 98.5437C121.756 100.027 121.564 101.502 121.18 102.969C120.796 104.435 120.203 105.754 119.401 106.924C118.599 108.094 117.572 109.049 116.319 109.791C115.066 110.533 113.554 110.903 111.783 110.903V110.903ZM128.271 111.299V96.9124C128.271 95.5281 128.471 94.1765 128.873 92.8585C129.273 91.5401 129.891 90.3782 130.727 89.3731C131.562 88.3678 132.623 87.5768 133.909 86.9999C135.195 86.4231 136.724 86.1842 138.494 86.283V85.2943C136.957 85.2617 135.613 85.4261 134.46 85.7887C133.307 86.1513 132.314 86.6456 131.478 87.272C130.643 87.8981 129.975 88.6313 129.474 89.4719C128.973 90.3112 128.602 91.2192 128.371 92.1662H128.271V85.8875H127.269V111.299H128.271V111.299ZM139.747 98.7909H161.296C161.363 97.0441 161.188 95.3634 160.77 93.7484C160.352 92.1333 159.684 90.6995 158.766 89.4473C157.847 88.1948 156.661 87.1895 155.207 86.4314C153.754 85.6733 152.025 85.2943 150.021 85.2943C148.584 85.2943 147.181 85.5911 145.811 86.1845C144.441 86.7777 143.238 87.6426 142.203 88.7797C141.167 89.9167 140.332 91.3093 139.697 92.9576C139.063 94.6053 138.745 96.4839 138.745 98.5933C138.745 100.472 138.962 102.227 139.396 103.858C139.831 105.49 140.499 106.907 141.401 108.11C142.303 109.313 143.464 110.244 144.884 110.903C146.304 111.563 148.016 111.876 150.021 111.843C152.96 111.843 155.433 111.027 157.437 109.396C159.442 107.764 160.628 105.465 160.996 102.499H159.993C159.559 105.3 158.448 107.402 156.661 108.802C154.873 110.203 152.627 110.903 149.92 110.903C148.083 110.903 146.529 110.59 145.26 109.964C143.99 109.338 142.954 108.481 142.152 107.393C141.351 106.306 140.758 105.028 140.374 103.562C139.989 102.095 139.781 100.505 139.747 98.7909ZM160.294 97.8022H139.747C139.847 96.0225 140.181 94.424 140.749 93.0068C141.317 91.5894 142.061 90.3782 142.98 89.3731C143.898 88.3678 144.967 87.6017 146.187 87.0741C147.406 86.5468 148.718 86.283 150.121 86.283C151.791 86.283 153.261 86.5881 154.531 87.1978C155.8 87.8076 156.861 88.6399 157.713 89.6945C158.565 90.7491 159.208 91.9769 159.642 93.3775C160.077 94.7783 160.294 96.2533 160.294 97.8022ZM182.094 93.4024H183.096C183.096 90.5678 182.26 88.5079 180.59 87.2225C178.919 85.9371 176.648 85.2943 173.775 85.2943C172.171 85.2943 170.818 85.4923 169.715 85.8878C168.613 86.283 167.711 86.794 167.009 87.4201C166.308 88.0462 165.807 88.7384 165.506 89.4966C165.205 90.2547 165.055 90.9799 165.055 91.6719C165.055 93.0561 165.305 94.1602 165.807 94.9842C166.308 95.8082 167.093 96.4509 168.162 96.9124C168.897 97.2417 169.732 97.5384 170.667 97.8025C171.603 98.066 172.689 98.3461 173.925 98.6426C175.027 98.9066 176.113 99.1701 177.182 99.4336C178.251 99.6974 179.195 100.052 180.014 100.497C180.832 100.942 181.5 101.51 182.018 102.202C182.536 102.894 182.795 103.801 182.795 104.921C182.795 106.009 182.536 106.932 182.018 107.69C181.505 108.444 180.829 109.077 180.039 109.544C179.237 110.022 178.343 110.368 177.358 110.582C176.372 110.796 175.412 110.903 174.476 110.903C171.436 110.903 169.105 110.236 167.485 108.901C165.865 107.566 165.055 105.465 165.055 102.598H164.052C164.052 105.795 164.929 108.135 166.683 109.618C168.437 111.101 171.035 111.843 174.476 111.843C175.579 111.843 176.689 111.719 177.809 111.472C178.928 111.225 179.93 110.821 180.815 110.261C181.693 109.708 182.43 108.964 182.97 108.086C183.522 107.195 183.797 106.108 183.797 104.822C183.797 103.603 183.555 102.614 183.071 101.856C182.586 101.098 181.952 100.472 181.166 99.9775C180.381 99.4832 179.496 99.096 178.51 98.8158C177.519 98.5341 176.525 98.2621 175.528 97.9999C174.302 97.6824 173.074 97.3693 171.845 97.0607C170.793 96.7969 169.816 96.4839 168.914 96.1213C168.045 95.7587 167.352 95.2397 166.834 94.5641C166.316 93.8884 166.057 92.9244 166.057 91.6719C166.057 91.4413 166.124 91.0292 166.257 90.436C166.391 89.8426 166.709 89.2411 167.21 88.6313C167.711 88.0218 168.479 87.478 169.515 86.9999C170.55 86.5222 171.97 86.283 173.775 86.283C175.011 86.283 176.138 86.4151 177.157 86.6786C178.176 86.9424 179.053 87.3625 179.788 87.9394C180.523 88.5162 181.091 89.2494 181.492 90.1393C181.893 91.0295 182.094 92.117 182.094 93.4024V93.4024ZM205.296 93.4024H206.298C206.298 90.5678 205.463 88.5079 203.793 87.2225C202.122 85.9371 199.85 85.2943 196.977 85.2943C195.374 85.2943 194.02 85.4923 192.918 85.8878C191.815 86.283 190.913 86.794 190.212 87.4201C189.51 88.0462 189.009 88.7384 188.708 89.4966C188.408 90.2547 188.257 90.9799 188.257 91.6719C188.257 93.0561 188.508 94.1602 189.009 94.9842C189.51 95.8082 190.296 96.4509 191.364 96.9124C192.1 97.2417 192.935 97.5384 193.87 97.8025C194.805 98.066 195.891 98.3461 197.127 98.6426C198.23 98.9066 199.316 99.1701 200.385 99.4336C201.454 99.6974 202.398 100.052 203.216 100.497C204.035 100.942 204.703 101.51 205.221 102.202C205.739 102.894 205.998 103.801 205.998 104.921C205.998 106.009 205.739 106.932 205.221 107.69C204.707 108.444 204.032 109.077 203.242 109.544C202.44 110.022 201.546 110.368 200.56 110.582C199.575 110.796 198.614 110.903 197.679 110.903C194.638 110.903 192.308 110.236 190.688 108.901C189.067 107.566 188.257 105.465 188.257 102.598H187.255C187.255 105.795 188.132 108.135 189.886 109.618C191.64 111.101 194.238 111.843 197.679 111.843C198.781 111.843 199.892 111.719 201.011 111.472C202.13 111.225 203.133 110.821 204.018 110.261C204.896 109.708 205.633 108.964 206.173 108.086C206.724 107.195 207 106.108 207 104.822C207 103.603 206.758 102.614 206.273 101.856C205.789 101.098 205.154 100.472 204.369 99.9775C203.584 99.4832 202.699 99.096 201.713 98.8158C200.722 98.5341 199.728 98.2621 198.731 97.9999C197.505 97.6824 196.277 97.3693 195.048 97.0607C193.995 96.7969 193.018 96.4839 192.116 96.1213C191.247 95.7587 190.554 95.2397 190.037 94.5641C189.519 93.8884 189.26 92.9244 189.26 91.6719C189.26 91.4413 189.326 91.0292 189.46 90.436C189.594 89.8426 189.911 89.2411 190.412 88.6313C190.913 88.0218 191.682 87.478 192.717 86.9999C193.753 86.5222 195.173 86.283 196.977 86.283C198.214 86.283 199.341 86.4151 200.36 86.6786C201.379 86.9424 202.256 87.3625 202.991 87.9394C203.726 88.5162 204.294 89.2494 204.695 90.1393C205.096 91.0295 205.296 92.117 205.296 93.4024H205.296Z" fill="#222222"/>
</svg>
