<svg width="260" height="183" viewBox="0 0 260 183" fill="none" xmlns="http://www.w3.org/2000/svg">
<rect width="260" height="183" fill="white"/>
<path d="M112.833 141.001C122.126 141.001 129.667 133.46 129.667 124.167V107.334H112.833C103.541 107.334 96 114.875 96 124.167C96 133.46 103.541 141.001 112.833 141.001Z" fill="#0ACF83"/>
<path d="M96 90.4995C96 81.2074 103.541 73.666 112.833 73.666H129.667V107.333H112.833C103.541 107.333 96 99.7915 96 90.4995Z" fill="#A259FF"/>
<path d="M96 56.8335C96 47.5414 103.541 40 112.833 40H129.667V73.6669H112.833C103.541 73.6669 96 66.1255 96 56.8335Z" fill="#F24E1E"/>
<path d="M129.667 40H146.5C155.792 40 163.334 47.5414 163.334 56.8335C163.334 66.1255 155.792 73.6669 146.5 73.6669H129.667V40Z" fill="#FF7262"/>
<path d="M163.334 90.4995C163.334 99.7915 155.792 107.333 146.5 107.333C137.208 107.333 129.667 99.7915 129.667 90.4995C129.667 81.2074 137.208 73.666 146.5 73.666C155.792 73.666 163.334 81.2074 163.334 90.4995Z" fill="#1ABCFE"/>
</svg>
