<svg width="260" height="183" viewBox="0 0 260 183" fill="none" xmlns="http://www.w3.org/2000/svg">
<rect width="260" height="183" fill="#D78B54"/>
<path d="M136.339 77.3493L125.722 87.2366L115.865 67.3471L120.957 55.9114C122.244 53.6287 124.35 53.6022 125.637 55.9114L136.339 77.3493Z" fill="#FFA000"/>
<path d="M125.722 87.2347L86 124.178L115.865 67.3496L125.722 87.2347Z" fill="#F57F17"/>
<path d="M147.982 62.2295C149.885 60.4157 151.844 61.0306 152.34 63.6009L162.665 123.677L128.416 144.239C127.212 144.911 124.027 145.172 124.027 145.172C124.027 145.172 121.13 144.818 120.019 144.208L86.0044 124.176L147.982 62.2295Z" fill="#FFCA28"/>
<path d="M115.865 67.3492L86.0044 124.178L99.3113 41.1115C99.8112 38.5368 101.271 38.2758 102.585 40.5541L115.865 67.3492Z" fill="#FFA000"/>
</svg>
