<svg width="260" height="183" viewBox="0 0 260 183" fill="none" xmlns="http://www.w3.org/2000/svg">
<rect width="260" height="183" fill="black"/>
<path d="M130 45C118.602 45.0005 107.577 49.0725 98.8958 56.4875C90.2151 63.9024 84.4457 74.1765 82.62 85.4712C80.7942 96.766 83.0312 108.344 88.9308 118.135C94.8303 127.925 104.007 135.289 114.82 138.908C117.22 139.329 118.12 137.884 118.12 136.619C118.12 135.474 118.06 131.679 118.06 127.644C106 129.872 102.88 124.692 101.92 121.982C100.855 119.345 99.1661 117.009 97 115.175C95.32 114.271 92.9201 112.043 96.94 111.982C98.4749 112.15 99.9471 112.686 101.232 113.546C102.517 114.405 103.576 115.564 104.32 116.922C104.976 118.106 105.859 119.148 106.918 119.989C107.976 120.83 109.189 121.453 110.488 121.822C111.787 122.191 113.145 122.3 114.486 122.141C115.826 121.982 117.122 121.56 118.3 120.897C118.508 118.447 119.595 116.157 121.36 114.452C110.68 113.247 99.52 109.091 99.52 90.659C99.4526 85.8697 101.213 81.236 104.44 77.7082C102.973 73.5458 103.144 68.9778 104.92 64.9382C104.92 64.9382 108.94 63.6732 118.12 69.8776C125.974 67.709 134.266 67.709 142.12 69.8776C151.3 63.613 155.32 64.9382 155.32 64.9382C157.096 68.9778 157.267 73.5458 155.8 77.7082C159.036 81.23 160.798 85.8677 160.72 90.659C160.72 109.151 149.5 113.247 138.82 114.452C139.965 115.618 140.847 117.017 141.407 118.555C141.966 120.094 142.188 121.735 142.06 123.367C142.06 129.812 142 134.993 142 136.619C142 137.884 142.9 139.39 145.3 138.908C156.093 135.259 165.244 127.879 171.118 118.083C176.993 108.288 179.208 96.7153 177.37 85.4315C175.532 74.1477 169.759 63.887 161.082 56.481C152.405 49.0751 141.389 45.006 130 45V45Z" fill="white"/>
</svg>
