<svg width="260" height="183" viewBox="0 0 260 183" fill="none" xmlns="http://www.w3.org/2000/svg">
<rect width="260" height="183" fill="#AE2300"/>
<path d="M95.6887 130.235L88 44H172.484L164.787 130.222L130.191 139.813L95.6887 130.235Z" fill="#E44D26"/>
<path d="M130.242 132.482L158.198 124.731L164.775 51.0508H130.242V132.482Z" fill="#F16529"/>
<path d="M130.242 83.0338H116.246L115.28 72.2028H130.242V61.627H103.721L103.974 64.4642L106.573 93.6105H130.242V83.0338ZM130.242 110.502L130.195 110.515L118.417 107.333L117.664 98.8992H107.046L108.528 115.505L130.194 121.519L130.242 121.506V110.502Z" fill="#EBEBEB"/>
<path d="M130.205 83.0338V93.6105H143.229L142.001 107.327L130.205 110.511V121.515L151.888 115.505L152.047 113.719L154.532 85.8741L154.79 83.0338H151.94H130.205ZM130.205 61.627V72.2028H155.753L155.965 69.8267L156.447 64.4642L156.7 61.627H130.205Z" fill="white"/>
</svg>
