<svg width="260" height="183" viewBox="0 0 260 183" fill="none" xmlns="http://www.w3.org/2000/svg">
<rect width="260" height="183" fill="#C7B300"/>
<path d="M178 37H82C78.6863 37 76 39.6863 76 43V139C76 142.314 78.6863 145 82 145H178C181.314 145 184 142.314 184 139V43C184 39.6863 181.314 37 178 37Z" fill="#F0D91F"/>
<path d="M165.028 120.831C163.881 116.506 154.899 115.498 148.756 110.908C142.546 106.723 141.066 96.5982 146.196 90.7887C147.951 88.6287 150.849 87.0087 153.891 86.2662L157.063 85.8657C163.206 85.7262 166.981 87.3462 169.816 90.5187C170.337 91.0307 170.77 91.5463 171.329 92.3395C171.971 93.2517 171.677 94.5107 170.731 95.1026C169.351 95.9659 168.572 96.4676 166.482 97.8325C165.464 98.4966 164.11 98.0831 163.32 97.1602C162.415 96.103 161.319 95.3966 160.164 95.0412C157.464 94.2312 154.021 95.1042 153.346 98.0112C153.089 98.861 153.14 99.6474 153.515 101.045C153.54 101.137 153.572 101.228 153.613 101.315C154.776 103.719 158.386 104.789 161.64 106.314C171.043 110.128 174.288 114.215 175.124 119.065C175.131 119.107 175.076 119.13 175.051 119.094V119.094C175.027 119.058 174.97 119.083 174.978 119.126C175.666 123.273 174.742 125.967 174.613 126.366C171.099 138.381 151.524 138.786 143.694 130.884C142.53 129.526 141.644 128.658 140.888 127.476C140.338 126.616 140.719 125.508 141.604 125L146.654 122.1C147.57 121.574 148.726 121.86 149.369 122.699C151.216 125.11 153.129 126.498 156.181 127.176C161.113 127.783 166.108 126.096 165.028 120.831ZM112.116 122.69C112.431 122.495 112.735 122.53 112.921 122.85C112.995 122.977 113.079 123.123 113.17 123.274C114.191 124.978 115.075 126.175 116.766 127.051C116.858 127.099 116.954 127.138 117.054 127.167C118.852 127.685 122.508 127.976 123.952 124.962C124.857 123.396 124.573 118.306 124.573 112.762C124.573 104.696 124.608 96.6868 124.613 88.6398C124.614 87.5352 125.509 86.6397 126.614 86.6397H134.477C134.613 86.6397 134.721 86.7556 134.712 86.8917V86.8917C134.712 96.2067 134.766 105.454 134.712 114.697C134.734 120.439 135.22 125.569 132.925 129.754C131.337 132.994 128.299 135.087 124.776 136.104C119.362 137.319 114.192 136.576 110.344 134.281C108.258 133.027 106.55 131.195 105.247 129.042C104.716 128.164 105.05 127.045 105.924 126.507L112.116 122.69Z" fill="black"/>
</svg>
