<svg width="260" height="183" viewBox="0 0 260 183" fill="none" xmlns="http://www.w3.org/2000/svg">
<rect width="260" height="183" fill="white"/>
<path d="M116.663 102.817L116.823 102.895L117.109 103.033C117.474 103.208 117.843 103.38 118.214 103.546L118.448 103.651C118.875 103.838 119.304 104.017 119.738 104.189L120.052 104.312C120.453 104.469 120.86 104.621 121.269 104.765L121.422 104.818C121.87 104.974 122.322 105.12 122.779 105.263L123.107 105.361C123.571 105.501 124.029 105.669 124.508 105.758C154.902 111.318 163.73 87.4356 163.73 87.4356C156.315 97.1263 143.153 99.6828 130.683 96.8368C130.21 96.7301 129.751 96.5816 129.291 96.4448L128.944 96.3397C128.494 96.2012 128.047 96.0553 127.604 95.9026L127.42 95.8359C127.022 95.6958 126.629 95.5473 126.238 95.3963L125.907 95.2662C125.478 95.0969 125.053 94.9192 124.632 94.734L124.377 94.6206C124.015 94.4563 123.657 94.2903 123.301 94.1185L122.989 93.9683C122.71 93.8315 122.433 93.6856 122.157 93.5429L121.601 93.251C121.264 93.07 120.933 92.8823 120.604 92.6897L120.267 92.5011C119.829 92.2417 119.396 91.974 118.968 91.7021L118.618 91.4685C118.307 91.2675 117.997 91.0632 117.693 90.8521L117.395 90.6419C117.101 90.4334 116.81 90.2224 116.522 90.008L116.134 89.7136C115.87 89.5109 115.606 89.3065 115.346 89.0963L114.994 88.8127C114.663 88.5392 114.336 88.2647 114.011 87.9828L113.904 87.8919C113.552 87.5849 113.209 87.2688 112.87 86.9519L112.579 86.6708C112.327 86.4314 112.08 86.1895 111.836 85.9418L111.545 85.6498C111.236 85.332 110.932 85.0101 110.635 84.6839L110.59 84.6356C110.275 84.2902 109.967 83.9374 109.666 83.5812L109.424 83.2926C109.199 83.0216 108.977 82.7463 108.76 82.4686L108.516 82.1649C108.254 81.8246 107.999 81.4851 107.748 81.1398C100.825 71.6661 98.3376 58.5998 103.871 47.8691L98.9662 54.1099C92.6809 63.1707 93.4642 74.96 98.2644 84.5888L98.6162 85.2736L98.8415 85.7074L98.9812 85.9568L99.2315 86.4064C99.3803 86.6699 99.5325 86.9318 99.6888 87.1937L99.9507 87.6266C100.124 87.9069 100.301 88.1838 100.483 88.4607L100.709 88.8127C100.959 89.1864 101.215 89.5601 101.479 89.9271L101.501 89.9563L101.631 90.1323C101.86 90.4484 102.095 90.7604 102.333 91.069L102.597 91.406C102.809 91.6737 103.026 91.9406 103.246 92.2059L103.494 92.502C103.789 92.8515 104.09 93.1985 104.398 93.5379L104.416 93.5571L104.451 93.5955C104.75 93.9241 105.058 94.2444 105.369 94.5664L105.663 94.8642C105.904 95.1077 106.149 95.3471 106.396 95.5857L106.697 95.8718C107.027 96.1837 107.36 96.4898 107.701 96.7901L107.718 96.8026L107.892 96.9528C108.192 97.213 108.498 97.4724 108.806 97.7268L109.184 98.0288C109.436 98.2306 109.69 98.43 109.946 98.626L110.353 98.9363C110.635 99.1448 110.92 99.35 111.207 99.551L111.518 99.7729L111.604 99.8338C111.877 100.022 112.155 100.202 112.434 100.383L112.793 100.624C113.22 100.895 113.654 101.162 114.092 101.421L114.451 101.625C114.774 101.811 115.097 101.993 115.426 102.172L115.964 102.452L116.663 102.817V102.817ZM119.734 72.1257C120.415 73.1049 121.169 74.2693 122.073 75.0567C122.4 75.4187 122.743 75.7707 123.092 76.1185L123.361 76.3838C123.702 76.7141 124.047 77.0385 124.402 77.3547L124.446 77.3914L124.456 77.4022C124.851 77.7492 125.258 78.0828 125.672 78.4115L125.949 78.6283C126.365 78.9478 126.788 79.2614 127.222 79.5609L127.259 79.5884L127.84 79.9721L128.116 80.1556C128.426 80.3541 128.74 80.5493 129.06 80.7345L129.193 80.812C129.468 80.9713 129.747 81.1281 130.027 81.28L130.323 81.4359L130.906 81.7387L130.995 81.7787C131.395 81.9764 131.799 82.1666 132.212 82.3476L132.48 82.4585C132.81 82.5987 133.143 82.7363 133.477 82.8647L133.905 83.0216C134.209 83.135 134.513 83.2384 134.821 83.341L135.236 83.4745C135.673 83.6104 136.105 83.7823 136.561 83.8582C160.027 87.7593 165.445 69.6334 165.445 69.6334C160.561 76.689 151.103 80.0547 141.011 77.4272C140.563 77.3088 140.12 77.1812 139.682 77.0419L139.282 76.9126C138.97 76.8117 138.66 76.7041 138.352 76.5915L137.933 76.4346C137.597 76.3045 137.262 76.1702 136.932 76.0301L136.663 75.915C136.249 75.734 135.84 75.5438 135.439 75.3436L134.824 75.03L134.47 74.8473C134.209 74.7056 133.95 74.5571 133.694 74.4078L133.508 74.3018C133.19 74.1158 132.877 73.924 132.567 73.7271L132.283 73.5361L131.675 73.1324C131.241 72.833 130.821 72.5202 130.407 72.2024L130.121 71.9764C125.704 68.479 122.202 63.6962 120.537 58.2737C118.792 52.6519 119.168 46.3394 122.191 41.2171L118.477 46.477C113.932 53.0372 114.179 61.8212 117.725 68.7601C118.318 69.922 118.986 71.0513 119.734 72.1257V72.1257ZM144.468 64.009L145.051 64.2117L145.308 64.2934C145.585 64.3802 145.858 64.4819 146.144 64.5353C159.101 67.0468 162.616 57.865 163.552 56.5138C160.473 60.9604 155.299 62.0272 148.951 60.4816C148.449 60.3598 147.898 60.1788 147.414 60.0061C146.795 59.7843 146.184 59.5324 145.591 59.2471C144.463 58.7033 143.389 58.0452 142.393 57.2895C136.712 52.9646 133.183 44.7179 136.89 38L134.884 40.7726C132.205 44.7287 131.942 49.6416 133.801 54.0089C135.761 58.6466 139.779 62.2833 144.468 64.009V64.009ZM131.961 117.226H128.447C128.252 117.226 128.059 117.382 128.017 117.573L126.77 123.362L125.522 129.151C125.482 129.342 125.288 129.499 125.093 129.499H122.606C120.146 129.499 120.43 127.791 120.934 125.452L120.949 125.382L121.004 125.086L121.014 125.031L121.126 124.431L121.247 123.788L121.375 123.133L121.942 120.354L122.51 117.574C122.549 117.382 122.421 117.225 122.226 117.225H118.62C118.426 117.225 118.233 117.382 118.193 117.573L117.417 121.264L116.642 124.954L116.64 124.959L116.569 125.303C115.676 129.393 115.912 133.294 120.766 133.416L120.908 133.419H128.527C128.721 133.419 128.915 133.262 128.956 133.071L130.599 125.323L132.242 117.574C132.283 117.382 132.156 117.226 131.961 117.226V117.226ZM94.3306 117.185H90.4725C90.2771 117.185 90.0825 117.342 90.0393 117.532L89.6734 119.152L89.3076 120.771C89.2652 120.962 89.3891 121.118 89.5845 121.118H93.4725C93.6679 121.118 93.8617 120.962 93.9032 120.771L94.2566 119.152L94.61 117.533C94.6508 117.342 94.526 117.185 94.3306 117.185V117.185ZM93.2114 122.226H89.3225C89.128 122.226 88.9326 122.383 88.8893 122.573L88.343 125L87.7976 127.427L87.6454 128.122L87.1207 130.6L86.5969 133.078C86.5562 133.269 86.4722 133.577 86.4098 133.763C86.4098 133.763 85.6831 135.931 84.4616 135.906L84.3086 135.903L83.2518 135.884H83.251C83.0564 135.881 82.861 136.034 82.8153 136.223L82.412 137.924L82.0096 139.624C81.9638 139.814 82.0869 139.971 82.2806 139.974C82.9733 139.982 84.5248 140 85.4636 140C88.5143 140 90.1233 138.304 91.1535 133.425L92.36 127.825L93.4917 122.572C93.5324 122.383 93.406 122.226 93.2114 122.226ZM164.817 120.913L164.656 120.245L164.497 119.561L164.416 119.216C164.1 117.984 163.173 117.274 161.159 117.274L158.025 117.271L155.138 117.267H151.889C151.695 117.267 151.502 117.423 151.461 117.614L151.317 118.295L151.147 119.099L151.1 119.325L149.637 126.198L148.249 132.722C148.207 132.914 148.194 133.15 148.217 133.245C148.241 133.341 148.616 133.419 148.81 133.419H151.74C151.936 133.419 152.183 133.384 152.289 133.341C152.396 133.297 152.553 132.913 152.592 132.722L153.112 130.137L153.634 127.551L153.634 127.547L153.704 127.202L154.336 124.233L154.894 121.611C154.936 121.42 155.128 121.264 155.322 121.263L164.543 121.259C164.738 121.26 164.861 121.104 164.817 120.913V120.913ZM176.687 114.874L175.977 114.877H173.026C172.83 114.877 172.58 115.009 172.471 115.171L165.945 124.762C165.835 124.924 165.709 124.9 165.666 124.71L165.186 122.597C165.142 122.406 164.947 122.25 164.752 122.25H160.557C160.361 122.25 160.246 122.404 160.299 122.591L162.179 129.198C162.232 129.387 162.236 129.695 162.188 129.886L161.369 133.083C161.32 133.273 161.44 133.427 161.635 133.427H165.782C165.976 133.427 166.176 133.272 166.224 133.083L167.044 129.886C167.092 129.695 167.228 129.413 167.346 129.256L177.941 115.15C178.059 114.994 177.995 114.866 177.8 114.868L176.687 114.874V114.874ZM143.356 123.148V123.144C143.331 123.356 143.136 123.512 142.941 123.512H137.622C137.437 123.512 137.344 123.387 137.371 123.232L137.376 123.22L137.373 123.221L137.375 123.204L137.4 123.113C137.908 121.758 138.942 120.869 140.887 120.869C143.077 120.868 143.504 121.941 143.356 123.148V123.148ZM141.795 116.989C134.967 116.989 133.349 121.146 132.441 125.342C131.534 129.62 131.611 133.617 138.678 133.617H139.534L139.747 133.617H139.797L140.645 133.614H140.66C142.526 133.607 144.397 133.592 145.155 133.587C145.349 133.583 145.538 133.427 145.578 133.236L145.864 131.834L145.92 131.561L146.261 129.888C146.3 129.697 146.173 129.54 145.977 129.54H139.625C137.099 129.54 136.349 128.866 136.625 126.886H146.779L146.778 126.887L146.785 126.886C146.946 126.884 147.096 126.772 147.155 126.623L147.179 126.535L147.178 126.536C148.685 120.831 148.253 116.99 141.795 116.989V116.989ZM109.525 123.126L109.428 123.467V123.468L108.661 126.194L107.895 128.919C107.842 129.108 107.639 129.262 107.443 129.262H103.386C100.307 129.262 99.5574 126.846 100.307 123.285C101.057 119.641 102.526 117.377 105.556 117.147C109.697 116.834 110.525 119.755 109.525 123.126V123.126ZM112.308 129.052C112.308 129.052 114.222 124.391 114.656 121.701C115.249 118.098 113.45 112.872 106.504 112.872C99.5973 112.872 96.5973 117.86 95.4531 123.285C94.309 128.748 95.8082 133.538 102.676 133.499L108.094 133.479L113.156 133.461C113.351 133.459 113.551 133.304 113.601 133.115L114.483 129.741C114.532 129.55 114.413 129.395 114.217 129.394L113.372 129.389L112.526 129.384C112.361 129.383 112.266 129.274 112.286 129.132L112.308 129.052V129.052ZM146.499 125.932C146.499 126.061 146.395 126.166 146.267 126.166C146.139 126.166 146.034 126.061 146.034 125.932C146.034 125.804 146.138 125.699 146.267 125.699C146.395 125.699 146.499 125.804 146.499 125.932Z" fill="#0868AC"/>
</svg>
