<svg width="260" height="183" viewBox="0 0 260 183" fill="none" xmlns="http://www.w3.org/2000/svg">
<rect width="260" height="183" fill="white"/>
<path fill-rule="evenodd" clip-rule="evenodd" d="M214.702 86.051C214.525 86.0862 214.348 86.4745 214.348 86.686C214.313 88.0983 214.278 91.8401 214.278 94.3815C214.278 94.4523 214.383 94.5934 214.49 94.5934C215.02 94.6286 216.293 94.6638 217.39 94.6638C218.91 94.6638 219.795 94.4523 220.29 94.2408C221.563 93.605 222.164 92.2283 222.164 90.7101C222.164 87.2866 219.759 85.9803 216.187 85.9803C215.939 85.9451 215.233 85.9451 214.702 86.051V86.051ZM223.827 101.83C223.827 98.3352 221.245 96.3936 216.576 96.3936C216.364 96.3936 214.879 96.3584 214.525 96.4288C214.419 96.4643 214.278 96.5351 214.278 96.6411C214.278 99.1469 214.242 103.136 214.348 104.689C214.419 105.36 214.914 106.313 215.516 106.595C216.152 106.948 217.602 107.019 218.592 107.019C221.386 107.019 223.827 105.466 223.827 101.83V101.83ZM207.487 84.1098C207.841 84.1098 208.901 84.2153 211.625 84.2153C214.207 84.2153 216.258 84.1449 218.769 84.1449C221.846 84.1449 226.09 85.239 226.09 89.828C226.09 92.0872 224.498 93.8877 222.412 94.7702C222.306 94.8054 222.306 94.8757 222.412 94.9109C225.382 95.6526 228 97.488 228 100.947C228 104.336 225.878 106.489 222.801 107.831C220.926 108.643 218.592 108.925 216.223 108.925C214.419 108.925 209.574 108.713 206.886 108.784C206.603 108.678 207.133 107.407 207.381 107.195C208.018 107.16 208.512 107.125 209.185 106.913C210.14 106.666 210.245 106.383 210.387 104.936C210.458 103.701 210.458 99.3233 210.458 96.2172C210.458 91.946 210.493 89.0515 210.458 87.6396C210.423 86.5456 210.034 86.1922 209.256 85.9803C208.654 85.8747 207.664 85.7332 206.85 85.6276C206.673 85.4509 207.274 84.2505 207.487 84.1098ZM187.08 106.066C187.929 106.736 189.591 107.018 191.077 107.018C192.986 107.018 194.896 106.666 196.735 105.006C198.61 103.313 199.918 100.7 199.918 96.5351C199.918 92.5458 198.398 89.2982 195.285 87.3925C193.517 86.2978 191.253 85.8395 188.636 85.8395C187.858 85.8395 187.115 85.8747 186.656 86.0862C186.549 86.157 186.302 86.4745 186.302 86.6508C186.231 87.357 186.231 92.7929 186.231 95.9701C186.231 99.2529 186.231 103.842 186.302 104.371C186.302 104.901 186.549 105.713 187.08 106.066H187.08ZM179.051 84.1094C179.724 84.1094 182.305 84.2153 183.543 84.2153C185.772 84.2153 187.363 84.1098 191.571 84.1098C195.108 84.1098 198.079 85.0626 200.201 86.8627C202.783 89.0867 204.127 92.1579 204.127 95.8994C204.127 101.23 201.687 104.301 199.246 106.066C196.806 107.866 193.623 108.925 189.096 108.925C186.691 108.925 182.553 108.854 179.122 108.819H179.087C178.91 108.501 179.37 107.266 179.653 107.231C180.573 107.125 180.82 107.089 181.28 106.913C182.022 106.631 182.164 106.242 182.27 104.936C182.376 102.5 182.341 99.5708 182.341 96.2524C182.341 93.8877 182.376 89.263 182.305 87.7804C182.199 86.5453 181.669 86.2274 180.608 86.0155C180.077 85.9099 179.37 85.7684 178.38 85.6628C178.238 85.4153 178.875 84.3213 179.051 84.1098V84.1094Z" fill="#8E714E"/>
<path fill-rule="evenodd" clip-rule="evenodd" d="M136.257 107.442C135.373 107.336 134.737 107.195 133.959 106.842C133.852 106.771 133.675 106.419 133.675 106.277C133.605 105.042 133.605 101.512 133.605 99.1471C133.605 97.2406 133.287 95.5816 132.473 94.4168C131.518 93.075 130.139 92.2988 128.37 92.2988C126.814 92.2988 124.728 93.3576 122.995 94.8403C122.959 94.8755 122.676 95.123 122.712 94.7343C122.712 94.3461 122.783 93.5696 122.818 93.0398C122.853 92.5456 122.57 92.2988 122.57 92.2988C121.439 92.8634 118.256 93.6047 117.088 93.7103C116.24 93.8874 116.027 94.6991 116.912 94.9814H116.947C117.901 95.2637 118.538 95.5816 119.033 95.8995C119.387 96.1818 119.352 96.57 119.352 96.8879C119.387 99.5349 119.387 103.595 119.281 105.819C119.246 106.701 118.998 107.019 118.361 107.16L118.432 107.124C117.937 107.23 117.548 107.336 116.947 107.407C116.734 107.619 116.734 108.748 116.947 108.995C117.336 108.995 119.387 108.889 121.085 108.889C123.419 108.889 124.622 108.995 125.223 108.995C125.47 108.713 125.541 107.654 125.4 107.407C124.728 107.372 124.232 107.301 123.773 107.16C123.136 107.018 122.959 106.701 122.924 105.96C122.853 104.088 122.853 100.135 122.853 97.4525C122.853 96.7112 123.065 96.3581 123.277 96.1462C124.091 95.4405 125.4 94.9462 126.567 94.9462C127.699 94.9462 128.441 95.2993 129.007 95.7583C129.785 96.3933 130.033 97.3113 130.139 97.9819C130.315 99.4997 130.245 102.5 130.245 105.112C130.245 106.524 130.139 106.877 129.609 107.054C129.361 107.16 128.724 107.301 127.981 107.371C127.734 107.619 127.805 108.713 127.981 108.96C129.007 108.96 130.21 108.854 131.978 108.854C134.171 108.854 135.585 108.96 136.152 108.96C136.328 108.748 136.399 107.725 136.257 107.442V107.442ZM146.054 93.9582C144.18 93.9582 143.013 95.4053 143.013 97.664C143.013 99.9588 144.038 102.606 146.938 102.606C147.433 102.606 148.353 102.394 148.777 101.9C149.449 101.265 149.909 99.9939 149.909 98.6525C149.909 95.7227 148.459 93.9578 146.054 93.9578V93.9582ZM145.806 109.56C145.099 109.56 144.604 109.772 144.286 109.949C142.8 110.901 142.128 111.819 142.128 112.914C142.128 113.937 142.517 114.749 143.366 115.455C144.392 116.337 145.806 116.761 147.61 116.761C151.218 116.761 152.809 114.82 152.809 112.914C152.809 111.572 152.137 110.69 150.758 110.196C149.768 109.772 147.964 109.56 145.806 109.56V109.56ZM146.054 118.738C143.897 118.738 142.34 118.279 140.997 117.255C139.688 116.267 139.122 114.784 139.122 113.761C139.122 113.478 139.193 112.702 139.83 111.996C140.218 111.572 141.068 110.76 143.083 109.384C143.154 109.348 143.189 109.313 143.189 109.242C143.189 109.172 143.118 109.101 143.048 109.066C141.386 108.431 140.89 107.407 140.749 106.842V106.771C140.714 106.559 140.643 106.348 140.961 106.136C141.209 105.96 141.563 105.748 141.951 105.501C142.553 105.148 143.189 104.759 143.578 104.441C143.649 104.371 143.649 104.301 143.649 104.23C143.649 104.159 143.578 104.088 143.507 104.054C141.032 103.242 139.794 101.406 139.794 98.6525C139.794 96.8523 140.608 95.2285 142.057 94.2049C143.048 93.4284 145.524 92.4752 147.151 92.4752H147.257C148.919 92.5104 149.838 92.8634 151.147 93.3224C151.854 93.5696 152.526 93.6751 153.446 93.6751C154.825 93.6751 155.426 93.2517 155.921 92.7579C155.957 92.8282 156.028 93.005 156.063 93.4636C156.098 93.9226 155.957 94.5932 155.603 95.0874C155.32 95.4756 154.684 95.7583 154.047 95.7583H153.87C153.234 95.6876 152.95 95.6168 152.95 95.6168L152.809 95.6876C152.774 95.7583 152.809 95.8287 152.845 95.9347L152.88 96.0054C152.951 96.3229 153.092 97.2758 153.092 97.5233C153.092 100.418 151.925 101.688 150.687 102.641C149.485 103.524 148.106 104.088 146.549 104.23C146.514 104.23 146.373 104.23 146.054 104.265C145.877 104.265 145.63 104.301 145.594 104.301H145.559C145.276 104.371 144.569 104.724 144.569 105.324C144.569 105.853 144.887 106.489 146.408 106.595C146.726 106.63 147.044 106.63 147.398 106.666C149.414 106.807 151.925 106.983 153.092 107.372C154.719 107.971 155.745 109.419 155.745 111.149C155.745 113.761 153.87 116.197 150.758 117.714C149.237 118.385 147.716 118.738 146.054 118.738V118.738ZM166.213 94.1345C165.471 94.1345 164.799 94.3105 164.303 94.6636C162.924 95.5108 162.217 97.2054 162.217 99.6761C162.217 104.301 164.551 107.548 167.876 107.548C168.866 107.548 169.644 107.266 170.316 106.701C171.341 105.853 171.872 104.159 171.872 101.794C171.872 97.2054 169.573 94.1342 166.214 94.1342L166.213 94.1345ZM166.85 109.242C160.838 109.242 158.68 104.83 158.68 100.7C158.68 97.8056 159.847 95.5816 162.181 93.993C163.844 92.9694 165.825 92.4048 167.593 92.4048C172.19 92.4048 175.409 95.6876 175.409 100.418C175.409 103.63 174.136 106.171 171.695 107.725C170.528 108.501 168.512 109.242 166.85 109.242H166.85V109.242ZM103.826 94.1342C103.083 94.1342 102.411 94.3105 101.916 94.6636C100.537 95.5108 99.8292 97.2054 99.8292 99.6761C99.8292 104.301 102.163 107.548 105.488 107.548C106.478 107.548 107.256 107.266 107.928 106.701C108.954 105.853 109.484 104.159 109.484 101.794C109.484 97.2054 107.221 94.1342 103.826 94.1342ZM104.462 109.242C98.4499 109.242 96.2925 104.83 96.2925 100.7C96.2925 97.8056 97.4595 95.5816 99.7935 93.993C101.456 92.9694 103.437 92.4048 105.205 92.4048C109.803 92.4048 113.021 95.6876 113.021 100.418C113.021 103.63 111.748 106.171 109.307 107.725C108.176 108.501 106.16 109.242 104.462 109.242ZM64.0376 108.889C63.9667 108.784 63.8958 108.466 63.9315 108.078C63.9315 107.795 64.0024 107.619 64.0376 107.548C64.7804 107.442 65.1694 107.336 65.5936 107.23C66.3011 107.054 66.5839 106.666 66.6192 105.783C66.7257 103.665 66.7257 99.6409 66.6901 96.8523V96.7816C66.6901 96.4641 66.6901 96.0754 66.3011 95.7931C65.735 95.4405 65.0632 95.123 64.179 94.8751C63.8609 94.7699 63.6486 94.5932 63.6839 94.3816C63.6839 94.1697 63.8962 93.9226 64.3561 93.8519C65.5231 93.7459 68.5642 93.005 69.7669 92.4752C69.8378 92.5456 69.9439 92.7579 69.9439 93.0401L69.9087 93.428C69.873 93.8167 69.8378 94.2757 69.8378 94.7343C69.8378 94.8755 69.9796 94.9814 70.1206 94.9814C70.1915 94.9814 70.2624 94.9462 70.3329 94.9107C72.5964 93.1457 74.6476 92.5104 75.7084 92.5104C77.4419 92.5104 78.7859 93.3224 79.8115 95.0166C79.882 95.123 79.9529 95.1582 80.0591 95.1582C80.1296 95.1582 80.2354 95.123 80.271 95.0522C82.3579 93.4636 84.4447 92.5104 85.8236 92.5104C89.1127 92.5104 91.0581 94.9462 91.0581 99.0763C91.0581 100.241 91.0581 101.759 91.0228 103.136C91.0228 104.371 90.9875 105.501 90.9875 106.313C90.9875 106.489 91.2347 107.054 91.6237 107.16C92.1189 107.407 92.7911 107.513 93.6753 107.654H93.7106C93.7815 107.901 93.64 108.819 93.4986 108.995C93.2863 108.995 92.9678 108.995 92.6145 108.96C91.7192 108.914 90.8228 108.89 89.9263 108.889C87.7337 108.889 86.602 108.925 85.5051 108.995C85.435 108.713 85.3993 107.866 85.5051 107.654C86.1421 107.548 86.4602 107.442 86.8496 107.336C87.5571 107.124 87.7337 106.807 87.7694 105.889C87.7694 105.218 87.9104 99.4997 87.6981 98.1231C87.4862 96.7112 86.4249 95.0522 84.0905 95.0522C83.2064 95.0522 81.8274 95.4053 80.4834 96.4285C80.4128 96.4993 80.3416 96.6756 80.3416 96.7816V96.8171C80.4834 97.5581 80.4834 98.4057 80.4834 99.7117V102.006C80.4834 103.595 80.4477 105.077 80.4834 106.206C80.4834 106.983 80.9433 107.16 81.3323 107.301C81.5446 107.336 81.6856 107.372 81.8627 107.407C82.1808 107.478 82.4993 107.548 82.9944 107.654C83.0653 107.795 83.0653 108.254 82.9592 108.642C82.9235 108.854 82.8526 108.96 82.8174 108.995C81.6151 108.96 80.3772 108.925 78.5736 108.925C78.0432 108.925 77.1234 108.96 76.3454 108.96C75.7084 108.96 75.1075 108.995 74.7541 108.995C74.7185 108.925 74.6476 108.678 74.6476 108.289C74.6476 107.972 74.7185 107.725 74.7894 107.654C74.9661 107.619 75.1075 107.583 75.2845 107.583C75.7084 107.513 76.0625 107.442 76.4159 107.372C77.0176 107.195 77.2296 106.877 77.2648 106.101C77.371 104.336 77.4771 99.2882 77.2296 98.0171C76.8053 95.9699 75.6383 94.9462 73.7634 94.9462C72.6673 94.9462 71.2876 95.4756 70.1562 96.3233C69.9792 96.4641 69.8378 96.8168 69.8378 97.1346V99.2174C69.8378 101.759 69.8378 104.936 69.873 106.313C69.9087 106.736 70.0497 107.23 70.8633 107.407C71.0404 107.442 71.3232 107.513 71.677 107.548L72.3132 107.654C72.3845 107.866 72.3488 108.713 72.2074 108.995C71.8537 108.995 71.4294 108.96 70.9339 108.96C70.1915 108.925 69.2364 108.889 68.1756 108.889C66.9377 108.889 66.0535 108.925 65.346 108.96C64.8509 108.889 64.4619 108.889 64.0376 108.889V108.889Z" fill="#442D22"/>
<path fill-rule="evenodd" clip-rule="evenodd" d="M45.4342 117.361L43.9843 116.866C43.9843 116.866 44.1614 109.489 41.5085 108.96C39.7406 106.912 41.7921 22.1231 48.1579 108.677C48.1579 108.677 45.965 109.771 45.576 111.642C45.1513 113.478 45.4342 117.361 45.4342 117.361V117.361Z" fill="white"/>
<path fill-rule="evenodd" clip-rule="evenodd" d="M45.4342 117.361L43.9843 116.866C43.9843 116.866 44.1614 109.489 41.5085 108.96C39.7406 106.912 41.7921 22.1231 48.1579 108.677C48.1579 108.677 45.965 109.771 45.576 111.642C45.1513 113.478 45.4342 117.361 45.4342 117.361V117.361Z" fill="#A6A385"/>
<path fill-rule="evenodd" clip-rule="evenodd" d="M46.2125 110.23C46.2125 110.23 58.9096 101.899 55.9383 84.5666C53.0739 71.9653 46.3186 67.8353 45.5759 66.2467C44.7626 65.1171 43.9843 63.1406 43.9843 63.1406L44.5151 98.1923C44.5151 98.2279 43.4186 108.923 46.2129 110.23" fill="white"/>
<path fill-rule="evenodd" clip-rule="evenodd" d="M46.2125 110.23C46.2125 110.23 58.9096 101.899 55.9383 84.5666C53.0739 71.9653 46.3186 67.8353 45.5759 66.2467C44.7626 65.1171 43.9843 63.1406 43.9843 63.1406L44.5151 98.1923C44.5151 98.2279 43.4186 108.923 46.2129 110.23" fill="#499D4A"/>
<path fill-rule="evenodd" clip-rule="evenodd" d="M43.242 110.689C43.242 110.689 31.3228 102.57 32.0303 88.2745C32.7021 73.9783 41.1195 66.9537 42.7464 65.683C43.8076 64.5534 43.8429 64.1296 43.9138 63C44.6566 64.5886 44.5151 86.7567 44.6209 89.3685C44.939 99.4287 44.0552 108.784 43.242 110.689Z" fill="white"/>
<path fill-rule="evenodd" clip-rule="evenodd" d="M43.242 110.689C43.242 110.689 31.3228 102.57 32.0303 88.2745C32.7021 73.9783 41.1195 66.9537 42.7464 65.683C43.8076 64.5534 43.8429 64.1296 43.9138 63C44.6566 64.5886 44.5151 86.7567 44.6209 89.3685C44.939 99.4287 44.0552 108.784 43.242 110.689Z" fill="#58AA50"/>
</svg>
