<svg width="260" height="183" viewBox="0 0 260 183" fill="none" xmlns="http://www.w3.org/2000/svg">
<rect width="260" height="183" fill="white"/>
<path d="M62.0011 120.67H66.5301V102.784L73.542 118.377C74.3688 120.264 75.5011 120.931 77.7226 120.931C79.9441 120.931 81.0334 120.264 81.8603 118.377L88.8721 102.784V120.67H93.4011V102.814C93.4011 101.072 92.7044 100.229 91.2667 99.7943C87.8258 98.7205 85.5172 99.6499 84.4721 101.973L77.5914 117.361L70.9291 101.972C69.9269 99.6499 67.5753 98.7205 64.1344 99.7932C62.6968 100.229 62 101.071 62 102.813V120.67H62.0011ZM97.1683 106.11H101.696V115.965C101.654 116.499 101.868 117.756 104.349 117.796C105.615 117.816 114.119 117.796 114.199 117.796V106.062H118.737C118.758 106.062 118.733 122.063 118.733 122.13C118.757 126.077 113.837 126.933 111.568 126.999H97.2665V123.952C97.2907 123.952 111.558 123.955 111.593 123.951C114.509 123.643 114.164 122.195 114.163 121.707V120.519H104.537C100.059 120.478 97.2058 118.523 97.1695 116.274C97.1672 116.068 97.2676 106.21 97.1683 106.11V106.11Z" fill="#00618A"/>
<path d="M122.229 120.67H135.252C136.776 120.67 138.258 120.351 139.433 119.8C141.392 118.9 142.351 117.681 142.351 116.082V112.773C142.351 111.466 141.262 110.246 139.128 109.434C137.996 108.998 136.601 108.767 135.251 108.767H129.762C127.933 108.767 127.062 108.216 126.845 106.997C126.802 106.851 126.802 106.736 126.802 106.59V104.528C126.802 104.413 126.802 104.296 126.845 104.151C127.062 103.222 127.542 102.961 129.154 102.815L129.589 102.786H142.525V99.7678H129.808C127.978 99.7678 127.02 99.8836 126.149 100.145C123.449 100.987 122.272 102.322 122.272 104.645V107.287C122.272 109.32 124.582 111.062 128.457 111.469C128.894 111.496 129.328 111.527 129.763 111.527H134.468C134.642 111.527 134.816 111.527 134.947 111.555C136.385 111.67 136.994 111.933 137.43 112.454C137.691 112.715 137.777 112.978 137.777 113.267V115.909C137.777 116.228 137.56 116.635 137.125 116.983C136.733 117.332 136.08 117.564 135.209 117.623L134.729 117.651H122.229V120.67V120.67ZM170.607 115.415C170.607 118.521 172.916 120.263 177.575 120.613C178.011 120.641 178.446 120.67 178.882 120.67H190.685V117.651H178.796C176.139 117.651 175.138 116.983 175.138 115.386V99.7656H170.608V115.415H170.607ZM145.241 115.572V104.806C145.241 102.072 147.162 100.413 150.959 99.8891C151.351 99.8307 151.789 99.802 152.18 99.802H160.779C161.215 99.802 161.608 99.8307 162.043 99.8891C165.84 100.413 167.762 102.071 167.762 104.806V115.572C167.762 117.792 166.946 118.979 165.066 119.753L169.529 123.78H164.269L160.66 120.521L157.026 120.752H152.18C151.351 120.752 150.479 120.636 149.519 120.373C146.638 119.588 145.241 118.075 145.241 115.572V115.572ZM150.13 115.311C150.13 115.456 150.173 115.603 150.217 115.777C150.478 117.028 151.658 117.726 153.446 117.726H157.561L153.781 114.314H159.041L162.337 117.291C162.945 116.966 163.344 116.472 163.484 115.836C163.527 115.69 163.527 115.544 163.527 115.399V105.071C163.527 104.955 163.527 104.808 163.484 104.663C163.222 103.499 162.043 102.831 160.298 102.831H153.445C151.438 102.831 150.129 103.704 150.129 105.071V115.311H150.13Z" fill="#E48E00"/>
<path d="M194.669 94.7556C191.886 94.6795 189.759 94.9386 187.94 95.7049C187.423 95.9231 186.599 95.9287 186.515 96.5758C186.799 96.8746 186.843 97.3189 187.069 97.6849C187.503 98.3872 188.236 99.3287 188.89 99.8215C189.603 100.361 190.34 100.938 191.107 101.406C192.469 102.237 193.99 102.711 195.303 103.542C196.076 104.034 196.843 104.652 197.599 105.206C197.972 105.478 198.222 105.905 198.708 106.076V105.998C198.453 105.674 198.387 105.228 198.153 104.889L197.124 103.859C196.117 102.523 194.84 101.351 193.481 100.376C192.398 99.5989 189.975 98.5482 189.523 97.288L189.444 97.2098C190.211 97.1227 191.111 96.8448 191.818 96.6552C193.009 96.3355 194.073 96.4182 195.302 96.1006L196.965 95.6244V95.3091C196.344 94.6718 195.9 93.8273 195.223 93.2507C193.451 91.7414 191.515 90.2332 189.523 88.9741C188.418 88.2774 187.052 87.8243 185.88 87.2333C185.488 87.0338 184.795 86.9312 184.534 86.5994C183.918 85.8155 183.584 84.8222 183.109 83.9082C182.116 81.9954 181.14 79.9051 180.259 77.8908C179.659 76.5182 179.266 75.1643 178.518 73.9329C174.923 68.0224 171.053 64.4548 165.059 60.9488C163.783 60.2024 162.247 59.9092 160.626 59.5244L158.013 59.3657C157.482 59.1441 156.929 58.4936 156.43 58.1783C154.443 56.9236 149.349 54.195 147.879 57.7836C146.95 60.0481 149.268 62.2575 150.096 63.4052C150.677 64.21 151.422 65.1118 151.838 66.017C152.111 66.6123 152.157 67.2088 152.392 67.8383C152.967 69.3884 153.468 71.0763 154.212 72.5084C154.588 73.2339 155.004 73.9979 155.479 74.6462C155.77 75.0431 156.271 75.2195 156.349 75.8336C155.861 76.5171 155.832 77.5799 155.557 78.4454C154.32 82.3471 154.787 87.1969 156.587 90.0844C157.14 90.9719 158.44 92.8726 160.229 92.1427C161.793 91.5055 161.445 89.5309 161.892 87.7879C161.994 87.3943 161.931 87.1032 162.129 86.8386V86.918L163.555 89.7679C164.61 91.4669 166.481 93.2408 168.067 94.4392C168.89 95.0599 169.538 96.1348 170.601 96.4975V96.4171H170.523C170.315 96.0962 169.995 95.9639 169.73 95.7049C169.11 95.0974 168.421 94.3433 167.91 93.6465C166.467 91.6885 165.192 89.5441 164.03 87.3127C163.476 86.2477 162.994 85.0724 162.526 83.9876C162.345 83.5697 162.348 82.9369 161.973 82.7219C161.459 83.5157 160.706 84.1585 160.309 85.0967C159.676 86.5961 159.595 88.4251 159.36 90.3214L159.201 90.3997C158.098 90.134 157.711 88.9984 157.3 88.0249C156.264 85.563 156.071 81.5974 156.984 78.7629C157.22 78.0286 158.286 75.7189 157.854 75.0409C157.648 74.365 156.968 73.9748 156.588 73.4566C156.117 72.8182 155.647 71.9782 155.322 71.2395C154.473 69.32 154.077 67.1647 153.185 65.2232C152.757 64.2949 152.036 63.3567 151.443 62.532C150.787 61.6169 150.052 60.9444 149.542 59.8397C149.361 59.4472 149.116 58.8177 149.383 58.4142C149.468 58.1419 149.591 58.0283 149.86 57.939C150.318 57.5851 151.597 58.057 152.076 58.2555C153.346 58.7835 154.405 59.2852 155.481 59.9974C155.997 60.3403 156.519 61.0018 157.144 61.1848H157.856C158.971 61.4405 160.22 61.263 161.261 61.5795C163.102 62.1395 164.751 63.0094 166.248 63.9553C170.811 66.8372 174.541 70.9385 177.095 75.8314C177.505 76.6196 177.683 77.3704 178.044 78.2061C178.774 79.8907 179.693 81.6249 180.419 83.2732C181.143 84.917 181.85 86.5762 182.874 87.9444C183.412 88.6632 185.491 89.0491 186.436 89.4482C187.099 89.7283 188.183 90.0204 188.811 90.3975C190.009 91.1207 191.171 91.9817 192.295 92.7733C192.856 93.1724 194.583 94.0401 194.669 94.7556V94.7556ZM159.281 64.5926C158.701 64.5815 158.289 64.6565 157.855 64.7513V64.8296H157.934C158.211 65.3996 158.7 65.7656 159.042 66.2551L159.835 67.9177L159.913 67.8394C160.404 67.4943 160.628 66.942 160.626 66.0975C160.428 65.8902 160.4 65.6311 160.23 65.3853C160.005 65.0545 159.566 64.8693 159.281 64.5926V64.5926Z" fill="#00618A"/>
</svg>
