<svg width="260" height="183" viewBox="0 0 260 183" fill="none" xmlns="http://www.w3.org/2000/svg">
<rect width="260" height="183" fill="#23811A"/>
<path d="M169.561 63.7147L133.707 42.9628C131.446 41.6791 128.502 41.6791 126.222 42.9628L89.9849 63.7147C87.6514 65.0527 86 67.5676 86 70.2575V111.706C86 114.396 87.6945 116.912 90.028 118.257L99.6021 123.677C104.178 125.924 105.795 125.924 107.878 125.924C114.653 125.924 118.523 121.84 118.523 114.717V73.7968C118.523 73.2189 118.222 72.359 117.653 72.359H113.081C112.502 72.359 111.206 73.2189 111.206 73.796V114.716C111.206 117.874 108.34 121.016 102.985 118.347L93.0925 112.663C92.7478 112.477 92.5047 112.102 92.5047 111.706V70.2575C92.5047 69.8669 92.9559 69.4746 93.3031 69.2744L129.424 48.5582C129.761 48.3678 130.257 48.3678 130.594 48.5582L166.273 69.2695C166.615 69.4746 166.495 69.8547 166.495 70.2575V111.706C166.495 112.102 166.643 112.487 166.306 112.677L130.46 133.405C130.153 133.589 129.772 133.589 129.435 133.405L120.241 127.935C119.964 127.775 119.635 127.717 119.369 127.866C116.811 129.311 116.339 129.503 113.94 130.332C113.35 130.537 112.479 130.893 114.273 131.895L126.305 138.99C127.458 139.655 128.767 140 130.084 140C131.419 140 132.726 139.655 133.878 138.99L169.561 118.257C171.894 116.902 173 114.396 173 111.706V70.2575C173 67.5676 171.894 65.0592 169.561 63.7147V63.7147ZM141.217 105.138C131.682 105.138 129.582 102.516 128.882 97.7904C128.801 97.2815 128.367 96.6728 127.848 96.6728H123.188C122.612 96.6728 122.148 97.3698 122.148 97.942C122.148 103.993 125.448 111.324 141.217 111.324C152.632 111.324 159.177 106.903 159.177 99.0791C159.177 91.3213 153.919 89.2855 142.848 87.825C131.659 86.3508 130.522 85.606 130.522 82.9931C130.522 80.8389 131.485 77.9658 139.77 77.9658C147.173 77.9658 149.902 79.5494 151.025 84.5232C151.121 84.9908 151.549 85.3264 152.033 85.3264H156.711C156.999 85.3264 157.274 85.2105 157.476 85.0054C157.671 84.785 157.774 84.5086 157.748 84.212C157.024 75.6471 151.315 71.6555 139.769 71.6555C129.499 71.6555 123.373 75.9785 123.373 83.2249C123.373 91.0847 129.468 93.2567 139.327 94.2285C151.121 95.3809 152.038 97.0991 152.038 99.4114C152.038 103.427 148.803 105.138 141.217 105.138Z" fill="#83CD29"/>
</svg>
