<svg width="260" height="183" viewBox="0 0 260 183" fill="none" xmlns="http://www.w3.org/2000/svg">
<rect width="260" height="183" fill="#0E99BF"/>
<path d="M125.912 83.0333C124.347 83.934 123.086 85.2772 122.287 86.8928C121.488 88.5085 121.187 90.3242 121.423 92.1102C121.659 93.8963 122.421 95.5725 123.612 96.9269C124.803 98.2813 126.37 99.253 128.115 99.7192C129.86 100.185 131.705 100.125 133.416 99.546C135.126 98.9669 136.626 97.895 137.726 96.4657C138.826 95.0365 139.476 93.3142 139.594 91.5166C139.712 89.719 139.293 87.9268 138.389 86.3668C137.178 84.275 135.183 82.7486 132.843 82.1235C130.503 81.4984 128.01 81.8256 125.912 83.0333V83.0333ZM166.853 92.9155C166.253 92.2321 165.62 91.5468 164.955 90.8598C165.42 90.3723 165.87 89.8853 166.305 89.3987C174.518 80.1969 177.984 70.9688 174.772 65.4209C171.693 60.1016 162.531 58.5164 151.061 60.7402C149.932 60.9606 148.808 61.2092 147.691 61.486C147.477 60.7508 147.25 60.0198 147.009 59.293C143.118 47.6011 136.832 39.996 130.408 40C124.248 40.0028 118.294 47.1251 114.496 58.1432C114.123 59.2301 113.777 60.3261 113.459 61.4312C112.712 61.2485 111.962 61.0797 111.209 60.9248C99.1077 58.4473 89.3609 60.079 86.1553 65.63C83.0814 70.9532 86.2961 79.6541 93.973 88.4377C94.7343 89.3068 95.5172 90.1564 96.3217 90.9865C95.3734 91.9606 94.4753 92.9341 93.6383 93.9022C86.1475 102.562 83.1166 111.121 86.1855 116.421C89.355 121.895 98.9646 123.685 110.661 121.39C111.609 121.203 112.551 120.992 113.489 120.758C113.832 121.953 114.209 123.138 114.619 124.312C118.4 135.109 124.321 142.002 130.459 142C136.798 141.996 143.153 134.59 147.003 123.34C147.307 122.451 147.595 121.528 147.868 120.578C149.079 120.878 150.298 121.144 151.524 121.377C162.793 123.503 171.74 121.831 174.803 116.527C177.966 111.048 174.705 101.859 166.853 92.9155H166.853ZM89.9421 67.8043C91.9156 64.3873 99.881 63.0542 110.329 65.1931C110.997 65.33 111.676 65.483 112.367 65.6521C111.347 70.1517 110.627 74.7137 110.212 79.3082C106.442 81.9528 102.848 84.8379 99.4517 87.9455C98.7034 87.1739 97.9751 86.3836 97.2668 85.5745L97.2671 85.5748C90.6894 78.0488 88.0896 71.012 89.9421 67.8043ZM109.821 97.0175C107.209 95.0458 104.783 93.026 102.58 90.9944C104.781 88.9755 107.209 86.9624 109.815 84.996C109.722 86.9991 109.675 89.0038 109.676 91.0099C109.678 93.0132 109.726 95.0157 109.821 97.0175V97.0175ZM109.818 117.115C105.385 118.097 100.808 118.258 96.3166 117.59C95.0853 117.494 93.8868 117.148 92.7951 116.572C91.7034 115.996 90.7417 115.203 89.9694 114.242C88.1073 111.026 90.541 104.155 96.9473 96.7482C97.7527 95.8201 98.5846 94.9161 99.4428 94.0364C102.84 97.1602 106.44 100.057 110.22 102.707C110.64 107.36 111.368 111.98 112.4 116.538C111.544 116.751 110.683 116.943 109.818 117.115ZM146.137 76.1139C144.422 75.0361 142.685 73.9929 140.927 72.9843C139.198 71.9915 137.447 71.036 135.676 70.1178C138.709 68.8462 141.69 67.7601 144.568 66.8751C145.247 69.9265 145.77 73.01 146.137 76.1139V76.1139ZM118.629 59.5595C121.883 50.1187 126.698 44.3589 130.41 44.3573C134.364 44.3554 139.502 50.5704 142.861 60.6651C143.079 61.3232 143.286 61.985 143.48 62.6505C139.067 64.0154 134.749 65.67 130.555 67.6036C126.378 65.6473 122.073 63.9742 117.671 62.5957C117.965 61.576 118.284 60.5639 118.629 59.5595ZM116.581 66.8208C119.583 67.7633 122.536 68.8561 125.428 70.095C121.845 71.9388 118.354 73.9472 114.956 76.1201C115.367 72.8663 115.913 69.7489 116.581 66.8208ZM114.964 105.89C116.658 106.972 118.377 108.013 120.121 109.015C121.9 110.036 123.703 111.015 125.529 111.95C122.616 113.232 119.638 114.364 116.607 115.342C115.931 112.373 115.379 109.201 114.964 105.89ZM142.867 121.932C141.507 126.253 139.36 130.286 136.535 133.832L136.535 133.832C135.837 134.848 134.937 135.71 133.892 136.365C132.846 137.02 131.677 137.455 130.457 137.642C126.732 137.644 121.978 132.108 118.745 122.875C118.364 121.783 118.013 120.682 117.693 119.57C122.117 118.147 126.439 116.427 130.629 114.421C134.858 116.367 139.21 118.034 143.658 119.411C143.415 120.258 143.152 121.098 142.867 121.932ZM144.72 115.179C141.809 114.281 138.784 113.177 135.707 111.887C137.442 110.976 139.189 110.015 140.949 109.003C142.754 107.963 144.514 106.898 146.227 105.806C145.886 108.954 145.383 112.082 144.72 115.179V115.179ZM147.003 90.9911C147.006 94.0884 146.91 97.1831 146.712 100.275C144.192 101.976 141.532 103.636 138.764 105.23C136.007 106.817 133.276 108.275 130.597 109.595C127.778 108.247 125.013 106.796 122.302 105.239C119.607 103.692 116.974 102.045 114.402 100.297C114.167 97.2061 114.048 94.1092 114.047 91.0067L114.047 91.0077C114.045 87.9073 114.161 84.8102 114.395 81.7163C116.914 80.0008 119.555 78.3417 122.285 76.7698C125.029 75.1904 127.794 73.7382 130.544 72.4221C133.329 73.7715 136.063 75.2176 138.747 76.7604C141.44 78.304 144.081 79.9338 146.669 81.6497C146.892 84.7587 147.003 87.8726 147.003 90.9911H147.003ZM151.896 65.0178C161.723 63.1118 169.132 64.3939 170.988 67.5995C172.966 71.0145 170.132 78.5568 163.041 86.5019L163.041 86.5022C162.649 86.9405 162.243 87.3806 161.821 87.8226C158.366 84.7084 154.703 81.8324 150.856 79.2146C150.468 74.6703 149.775 70.157 148.782 65.705C149.84 65.4455 150.878 65.2164 151.896 65.0178V65.0178ZM151.232 84.8297C153.827 86.7188 156.321 88.7408 158.706 90.8876C156.332 93.0698 153.845 95.1267 151.255 97.05C151.335 95.0307 151.374 93.0104 151.372 90.9891C151.372 88.9355 151.325 86.8824 151.232 84.8297V84.8297ZM171.015 114.352C169.157 117.571 161.973 118.913 152.336 117.095C151.231 116.887 150.098 116.64 148.936 116.353C149.905 111.844 150.567 107.274 150.918 102.676C154.758 100.012 158.41 97.0885 161.848 93.9249C162.45 94.5481 163.022 95.1684 163.565 95.7858V95.7854C166.639 99.1185 169.071 102.987 170.741 107.199C171.275 108.309 171.574 109.517 171.622 110.747C171.669 111.978 171.463 113.205 171.015 114.352V114.352Z" fill="#62DAFB"/>
</svg>
