<svg width="260" height="183" viewBox="0 0 260 183" fill="none" xmlns="http://www.w3.org/2000/svg">
<rect width="260" height="183" fill="white"/>
<path fill-rule="evenodd" clip-rule="evenodd" d="M98.75 81.8C102.716 65.934 112.634 58 128.5 58C152.3 58 155.275 75.85 167.175 78.825C175.109 80.809 182.05 77.834 188 69.9C184.034 85.766 174.116 93.7 158.25 93.7C134.45 93.7 131.475 75.85 119.575 72.875C111.641 70.891 104.7 73.866 98.75 81.8ZM69 117.5C72.966 101.634 82.884 93.7 98.75 93.7C122.55 93.7 125.525 111.55 137.425 114.525C145.359 116.509 152.3 113.534 158.25 105.6C154.284 121.466 144.366 129.4 128.5 129.4C104.7 129.4 101.725 111.55 89.825 108.575C81.891 106.591 74.95 109.566 69 117.5Z" fill="url(#paint0_linear_35_161)"/>
<defs>
<linearGradient id="paint0_linear_35_161" x1="69" y1="-5.46605" x2="188" y2="192.866" gradientUnits="userSpaceOnUse">
<stop stop-color="#2383AE"/>
<stop offset="1" stop-color="#6DD7B9"/>
</linearGradient>
</defs>
</svg>
